<svg width="188" height="188" viewBox="0 0 188 188" fill="none" xmlns="http://www.w3.org/2000/svg">
<circle opacity="0.05" cx="94" cy="94" r="56.5" stroke="white"/>
<circle opacity="0.05" cx="94" cy="94" r="93.5" stroke="white"/>
<path d="M87.9613 172C87.9451 172 87.937 171.976 87.937 171.927C87.937 171.879 87.9451 171.855 87.9613 171.855C88.2601 171.855 88.5428 171.725 88.8094 171.467C89.0679 171.216 89.2819 170.869 89.4516 170.425L91.6931 164.439C91.7012 164.407 91.7456 164.391 91.8264 164.391C91.9071 164.391 91.9516 164.407 91.9596 164.439L93.5105 167.723L94.7343 164.439C94.7424 164.407 94.7868 164.391 94.8676 164.391C94.9483 164.391 94.9928 164.407 95.0009 164.439L98.0905 170.994C98.2117 171.253 98.3127 171.439 98.3934 171.552C98.4661 171.665 98.5509 171.742 98.6479 171.782C98.7367 171.83 98.8579 171.855 99.0114 171.855C99.0356 171.855 99.0477 171.879 99.0477 171.927C99.0477 171.976 99.0356 172 99.0114 172C98.8902 172 98.8054 171.996 98.7569 171.988C98.5954 171.972 98.3853 171.964 98.1269 171.964C97.5857 171.964 97.1293 171.972 96.7577 171.988C96.6527 171.996 96.5235 172 96.37 172C96.3458 172 96.3336 171.976 96.3336 171.927C96.3336 171.879 96.3458 171.855 96.37 171.855C96.5719 171.855 96.7173 171.834 96.8062 171.794C96.887 171.754 96.9274 171.681 96.9274 171.576C96.9274 171.439 96.8345 171.172 96.6487 170.776L94.4677 166.148L93.7044 168.147L95.0493 170.994C95.1866 171.285 95.3159 171.499 95.437 171.637C95.5582 171.782 95.6874 171.855 95.8248 171.855C95.849 171.855 95.8611 171.879 95.8611 171.927C95.8611 171.976 95.849 172 95.8248 172C95.744 172 95.6511 171.992 95.5461 171.976C95.433 171.968 95.2755 171.964 95.0735 171.964C94.6131 171.964 94.2294 171.972 93.9225 171.988C93.8417 171.996 93.7367 172 93.6075 172C93.5832 172 93.5711 171.976 93.5711 171.927C93.5711 171.879 93.5832 171.855 93.6075 171.855C93.7206 171.855 93.8054 171.838 93.8619 171.806C93.9104 171.782 93.9346 171.733 93.9346 171.661C93.9346 171.523 93.8256 171.229 93.6075 170.776L93.0744 169.649L92.7714 170.461C92.5937 170.922 92.5049 171.269 92.5049 171.503C92.5049 171.737 92.6059 171.855 92.8078 171.855C92.832 171.855 92.8441 171.879 92.8441 171.927C92.8441 171.976 92.832 172 92.8078 172C92.7432 172 92.6745 171.992 92.6018 171.976C92.521 171.968 92.3272 171.964 92.0202 171.964C91.8829 171.964 91.7173 171.972 91.5235 171.988L91.0752 172C91.059 172 91.0509 171.976 91.0509 171.927C91.0509 171.879 91.059 171.855 91.0752 171.855C91.6164 171.855 92.0647 171.378 92.4201 170.425L92.8684 169.225L91.4144 166.16L89.8514 170.34C89.7545 170.599 89.706 170.833 89.706 171.043C89.706 171.293 89.7706 171.491 89.8999 171.637C90.021 171.782 90.1866 171.855 90.3966 171.855C90.4209 171.855 90.433 171.879 90.433 171.927C90.433 171.976 90.4209 172 90.3966 172L89.8393 171.988C89.5485 171.972 89.2819 171.964 89.0396 171.964C88.8781 171.964 88.6923 171.972 88.4823 171.988L87.9613 172Z" fill="url(#paint0_linear_107_2331)"/>
<path d="M79.0178 164.866C79.0151 164.882 78.9978 164.887 78.966 164.882C78.9421 164.878 78.9235 164.866 78.9102 164.848C78.8876 164.836 78.877 164.826 78.8783 164.818C79.0617 164.21 79.1959 163.651 79.281 163.141C79.2917 163.077 79.3116 163.031 79.3408 163.003C79.3687 162.983 79.4185 162.979 79.4902 162.991L84.7726 163.873C84.7965 163.877 84.8045 163.903 84.7965 163.95C84.7885 163.998 84.7726 164.02 84.7487 164.016C84.4937 163.974 84.3071 163.963 84.1889 163.984C84.0628 164.004 83.9705 164.066 83.912 164.171C83.8522 164.284 83.8024 164.46 83.7625 164.699L82.8392 170.233C82.7993 170.472 82.79 170.65 82.8112 170.768C82.8324 170.887 82.8994 170.976 83.0123 171.035C83.1238 171.103 83.3031 171.158 83.5501 171.199C83.574 171.203 83.582 171.229 83.574 171.277C83.566 171.324 83.5501 171.346 83.5262 171.342L78.4589 170.497C78.3792 170.483 78.3454 170.441 78.3573 170.369L78.5987 168.776C78.6013 168.76 78.6272 168.752 78.6764 168.752C78.7175 168.75 78.7401 168.762 78.7441 168.788C78.7944 169.271 78.9524 169.65 79.2179 169.923C79.4835 170.197 79.8632 170.375 80.3572 170.457L80.7157 170.517C80.9548 170.557 81.1387 170.534 81.2675 170.449C81.3963 170.364 81.4787 170.214 81.5146 169.999L81.9214 167.561L80.9295 167.396C80.4674 167.319 80.0995 167.339 79.826 167.457C79.5524 167.575 79.3917 167.778 79.3438 168.065C79.3398 168.089 79.3179 168.097 79.2781 168.091C79.2303 168.083 79.2083 168.067 79.2123 168.043L79.4038 166.969L79.4875 166.393C79.5168 166.12 79.5447 165.903 79.5713 165.744C79.574 165.728 79.5992 165.724 79.647 165.732C79.6948 165.74 79.7174 165.752 79.7147 165.768C79.6602 166.095 79.7452 166.371 79.9695 166.597C80.1846 166.829 80.5272 166.985 80.9973 167.063L81.9773 167.227L82.428 164.526C82.4665 164.295 82.4513 164.116 82.3823 163.99C82.3132 163.864 82.1831 163.785 81.9919 163.753L81.5975 163.687C80.9761 163.583 80.4568 163.628 80.0398 163.82C79.6228 164.012 79.2821 164.361 79.0178 164.866Z" fill="url(#paint1_linear_107_2331)"/>
<path d="M71.0523 161.696C71.1205 161.498 71.1551 161.347 71.156 161.245C71.1543 161.151 71.1166 161.074 71.0431 161.014C70.9619 160.952 70.822 160.887 70.6233 160.819L70.2337 160.685C69.6378 160.481 69.0683 160.46 68.5253 160.624C67.9797 160.795 67.5412 161.127 67.2098 161.62C67.2046 161.635 67.1867 161.637 67.1561 161.627C67.1408 161.622 67.1282 161.609 67.1181 161.588C67.0978 161.573 67.089 161.561 67.0916 161.554C67.42 160.821 67.6708 160.202 67.8439 159.698C67.8649 159.637 67.8959 159.596 67.937 159.576C67.9677 159.561 68.0137 159.564 68.0748 159.585L73.4839 161.442C73.4991 161.447 73.4989 161.473 73.4832 161.519C73.4674 161.565 73.4519 161.585 73.4367 161.58C73.1922 161.496 73.0099 161.455 72.8898 161.456C72.7621 161.455 72.6608 161.501 72.5859 161.595C72.5007 161.694 72.4188 161.858 72.3401 162.087L70.5186 167.393C70.4399 167.622 70.4051 167.798 70.4142 167.921C70.4157 168.041 70.4672 168.14 70.5687 168.217C70.6675 168.303 70.8354 168.386 71.0722 168.467C71.0875 168.472 71.0873 168.498 71.0715 168.544C71.0558 168.59 71.0403 168.61 71.025 168.605L70.4445 168.393C70.0983 168.257 69.8106 168.149 69.5814 168.071C69.3522 167.992 69.0593 167.9 68.7026 167.795L68.1142 167.605C68.0913 167.598 68.0877 167.571 68.1034 167.525C68.1192 167.479 68.1385 167.46 68.1614 167.468C68.3983 167.549 68.5818 167.587 68.7122 167.58C68.8399 167.581 68.9425 167.531 69.0201 167.43C69.095 167.336 69.1718 167.174 69.2505 166.945L71.0523 161.696Z" fill="url(#paint2_linear_107_2331)"/>
<path d="M55.4874 162.036C55.1535 161.855 54.8315 161.644 54.5212 161.403C54.2 161.165 53.9595 160.948 53.7996 160.751C53.7472 160.695 53.7235 160.645 53.7285 160.602C53.7226 160.562 53.7372 160.501 53.7724 160.419L54.4355 158.863C54.447 158.842 54.4725 158.837 54.5118 158.849C54.5512 158.861 54.5703 158.885 54.5691 158.922C54.4528 159.612 54.4967 160.21 54.7007 160.715C54.901 161.227 55.2604 161.624 55.779 161.905C56.2621 162.166 56.7666 162.269 57.2924 162.214C57.8073 162.162 58.3056 161.954 58.7873 161.59C59.2618 161.222 59.674 160.715 60.0239 160.069C60.3775 159.415 60.5788 158.78 60.6277 158.164C60.6657 157.55 60.5623 157.003 60.3177 156.522C60.0621 156.044 59.6786 155.666 59.1671 155.389C58.6769 155.124 58.1938 155.033 57.7176 155.115C57.2377 155.204 56.6832 155.473 56.0542 155.923C56.0355 155.94 56.0104 155.936 55.9787 155.91C55.947 155.883 55.937 155.859 55.9485 155.838L56.8234 154.603C56.8837 154.526 56.9287 154.476 56.9583 154.456C56.984 154.442 57.0366 154.438 57.1159 154.445C57.8963 154.564 58.6204 154.804 59.2882 155.166C60.0483 155.577 60.6534 156.088 61.1035 156.699C61.5426 157.313 61.7923 157.972 61.8527 158.675C61.913 159.378 61.7644 160.06 61.4069 160.721C61.0416 161.396 60.5427 161.902 59.9102 162.239C59.2666 162.58 58.5586 162.734 57.7862 162.702C57.0067 162.665 56.2404 162.444 55.4874 162.036Z" fill="url(#paint3_linear_107_2331)"/>
<path d="M50.6253 149.355C51.2182 149.816 51.6406 150.365 51.8926 151.001C52.1332 151.639 52.1974 152.293 52.0853 152.963C51.9618 153.635 51.6817 154.251 51.2451 154.812C50.7341 155.468 50.1318 155.9 49.4381 156.108C48.7395 156.321 48.0403 156.345 47.3404 156.179C46.6341 156.008 46.0101 155.712 45.4683 155.29C44.8627 154.819 44.4421 154.261 44.2064 153.617C43.9657 152.979 43.9054 152.334 44.0253 151.68C44.1389 151.021 44.3991 150.43 44.806 149.907C45.2574 149.327 45.8247 148.914 46.5077 148.668C47.1908 148.422 47.8996 148.359 48.6342 148.481C49.3624 148.597 50.0262 148.888 50.6253 149.355ZM50.1238 149.348C49.7668 149.07 49.3687 148.924 48.9295 148.91C48.4789 148.897 48.0201 149.026 47.5532 149.297C47.0813 149.575 46.6295 149.991 46.1978 150.546C45.7414 151.132 45.4238 151.724 45.2451 152.322C45.0614 152.926 45.0367 153.491 45.1712 154.015C45.3056 154.539 45.5991 154.977 46.0517 155.33C46.6317 155.781 47.2491 155.909 47.9038 155.712C48.5535 155.522 49.1835 155.034 49.7937 154.25C50.275 153.632 50.6142 153.005 50.8113 152.371C50.9972 151.737 51.0342 151.157 50.9225 150.63C50.8043 150.098 50.5381 149.671 50.1238 149.348Z" fill="url(#paint4_linear_107_2331)"/>
<path d="M38.6919 138.194C38.6809 138.182 38.6933 138.159 38.729 138.126C38.7646 138.094 38.7879 138.083 38.7989 138.095C38.9849 138.297 39.1296 138.46 39.2331 138.585L39.8314 139.252L40.4558 139.913C40.5657 140.02 40.7109 140.172 40.8914 140.368C40.9078 140.386 40.8982 140.411 40.8626 140.444C40.8269 140.477 40.8009 140.485 40.7845 140.467C40.5547 140.217 40.3691 140.075 40.2276 140.041C40.0861 140.006 39.9202 140.077 39.7301 140.252L39.5867 140.4L36.1131 143.944L42.1092 141.816C42.1439 141.806 42.1777 141.819 42.2105 141.855C42.2433 141.89 42.2533 141.925 42.2405 141.959L40.0289 148.161L43.3126 145.27C43.639 144.981 43.8341 144.686 43.898 144.386C43.9504 144.085 43.8645 143.813 43.6402 143.569C43.6238 143.551 43.6334 143.526 43.6691 143.493C43.7047 143.46 43.7308 143.453 43.7472 143.47C43.8949 143.631 44.0068 143.758 44.0829 143.853L44.5253 144.352L45.0512 144.905C45.1447 144.995 45.2653 145.12 45.413 145.28C45.4294 145.298 45.4198 145.323 45.3842 145.356C45.3485 145.389 45.3225 145.396 45.3061 145.379C45.0818 145.135 44.8118 145.027 44.4963 145.053C44.1808 145.08 43.8628 145.236 43.5424 145.52L39.778 148.837L39.7773 148.854C39.6668 149.176 39.6212 149.448 39.6406 149.672C39.6544 149.89 39.7379 150.082 39.8911 150.248C39.9075 150.266 39.8979 150.291 39.8623 150.324C39.8266 150.357 39.8006 150.364 39.7842 150.347L39.4074 149.919C39.3367 149.831 39.2412 149.721 39.1209 149.59L38.677 149.126C38.6219 149.078 38.556 149.012 38.4794 148.929C38.4083 148.852 38.3803 148.768 38.3955 148.677C38.4107 148.586 38.4673 148.391 38.5654 148.092L40.4224 142.793L34.9766 144.677C34.8606 144.718 34.7713 144.734 34.7088 144.726C34.6348 144.717 34.5678 144.68 34.5076 144.615C34.4584 144.561 34.4066 144.499 34.3524 144.428C34.2927 144.351 34.2218 144.268 34.1397 144.179L33.6466 143.661C33.5641 143.584 33.4517 143.468 33.3095 143.313C33.2931 143.295 33.3027 143.27 33.3384 143.237C33.374 143.204 33.4 143.197 33.4165 143.215C33.6736 143.494 33.916 143.644 34.1439 143.665C34.3717 143.686 34.5989 143.581 34.8257 143.35L38.6758 139.41C38.8491 139.229 38.9637 139.085 39.0195 138.979C39.0699 138.867 39.0717 138.755 39.0248 138.645C38.9724 138.528 38.8615 138.378 38.6919 138.194Z" fill="url(#paint5_linear_107_2331)"/>
<path d="M31.6937 131.024C31.6801 131.033 31.6645 131.024 31.6469 130.997C31.6336 130.976 31.6293 130.955 31.634 130.933C31.6275 130.908 31.6277 130.893 31.6344 130.889C32.2061 130.612 32.7083 130.332 33.1411 130.049C33.1952 130.014 33.2424 129.998 33.2827 130C33.3162 130.007 33.3528 130.041 33.3926 130.102L36.3217 134.586C36.335 134.606 36.3213 134.629 36.2808 134.656C36.2402 134.682 36.2133 134.685 36.2 134.665C36.0587 134.449 35.9401 134.304 35.8445 134.232C35.7444 134.152 35.636 134.127 35.5192 134.155C35.3957 134.187 35.2325 134.27 35.0296 134.402L30.3332 137.47C30.1304 137.603 29.9926 137.717 29.92 137.813C29.8475 137.908 29.8274 138.018 29.8599 138.142C29.8856 138.27 29.9669 138.438 30.1038 138.648C30.1171 138.668 30.1034 138.692 30.0629 138.718C30.0223 138.745 29.9954 138.748 29.9821 138.727L27.1723 134.427C27.1281 134.359 27.1364 134.305 27.1973 134.266L28.5331 133.364C28.5466 133.355 28.57 133.369 28.6033 133.405C28.6322 133.434 28.6386 133.459 28.6228 133.479C28.3013 133.843 28.1298 134.216 28.1083 134.597C28.0868 134.977 28.2131 135.377 28.487 135.797L28.6858 136.101C28.8183 136.304 28.9595 136.424 29.1093 136.461C29.259 136.498 29.4252 136.457 29.6078 136.338L31.677 134.986L31.127 134.144C30.8707 133.752 30.6065 133.495 30.3343 133.374C30.0621 133.253 29.8043 133.271 29.5608 133.431C29.5406 133.444 29.5194 133.433 29.4973 133.4C29.4708 133.359 29.4677 133.332 29.4879 133.319L30.4075 132.733L30.8877 132.404C31.1088 132.241 31.287 132.115 31.4222 132.026C31.4357 132.017 31.4558 132.033 31.4823 132.074C31.5088 132.114 31.5153 132.139 31.5017 132.148C31.2245 132.329 31.0788 132.579 31.0646 132.897C31.0393 133.212 31.157 133.57 31.4176 133.969L31.961 134.8L34.2534 133.303C34.4496 133.175 34.5706 133.042 34.6167 132.906C34.6628 132.77 34.6328 132.621 34.5268 132.458L34.3081 132.124C33.9635 131.596 33.5792 131.244 33.1551 131.068C32.7311 130.891 32.2439 130.877 31.6937 131.024Z" fill="url(#paint6_linear_107_2331)"/>
<path d="M18.7911 113.879C19.0271 114.81 19.8035 115.326 21.1203 115.426C21.1458 115.428 21.1635 115.449 21.1734 115.488C21.1755 115.529 21.1647 115.552 21.1413 115.558C20.8201 115.606 20.4079 115.673 19.9047 115.759C19.3936 115.847 19.0128 115.922 18.7622 115.986C18.7231 115.996 18.6986 115.981 18.6886 115.942C18.6767 115.895 18.6904 115.866 18.7295 115.857C18.9018 115.813 18.9314 115.568 18.8184 115.122C18.6713 114.442 18.4838 113.652 18.2558 112.752C18.1388 112.29 18.007 111.802 17.8605 111.29L17.6465 110.494C17.5711 110.196 17.497 109.986 17.4242 109.863C17.3493 109.732 17.2482 109.661 17.1208 109.652C17.0875 109.652 17.0659 109.633 17.056 109.593C17.0441 109.546 17.0538 109.519 17.0851 109.511C17.326 109.475 17.7088 109.407 18.2335 109.308C18.7563 109.2 19.1743 109.107 19.4875 109.028C19.511 109.022 19.5277 109.038 19.5376 109.077C19.5475 109.117 19.5417 109.143 19.5202 109.157C18.947 109.427 18.5523 109.76 18.336 110.157C18.112 110.555 18.0594 110.989 18.1784 111.459C18.2359 111.686 18.3254 111.826 18.4471 111.878C18.5589 111.925 18.7518 111.914 19.0259 111.844L24.4406 110.473C24.6833 110.412 24.8536 110.344 24.9513 110.269C25.049 110.194 25.1006 110.085 25.1061 109.942C25.1115 109.799 25.0775 109.583 25.0042 109.293C24.9982 109.27 25.0187 109.252 25.0657 109.24C25.1127 109.228 25.1392 109.234 25.1451 109.257C25.2165 109.539 25.2691 109.763 25.3029 109.93L25.538 110.908L25.7907 111.856C25.8402 112.019 25.9016 112.245 25.975 112.534C25.9809 112.558 25.9604 112.576 25.9134 112.587C25.8664 112.599 25.84 112.594 25.834 112.57C25.7626 112.288 25.6905 112.086 25.6177 111.962C25.5428 111.831 25.4446 111.756 25.3231 111.737C25.1918 111.712 25.0086 111.729 24.7737 111.789L19.3355 113.166C19.0693 113.233 18.8981 113.314 18.822 113.408C18.7459 113.503 18.7356 113.659 18.7911 113.879Z" fill="url(#paint7_linear_107_2331)"/>
<path d="M23.8755 99.6295C23.9376 100.378 23.8199 101.061 23.5224 101.677C23.2162 102.286 22.7786 102.776 22.2096 103.147C21.6319 103.511 20.9888 103.723 20.2804 103.781C19.4513 103.85 18.7255 103.7 18.1032 103.33C17.4728 102.96 16.9817 102.462 16.6298 101.835C16.2773 101.199 16.0727 100.539 16.016 99.8552C15.9526 99.0905 16.078 98.4033 16.3922 97.7937C16.6984 97.1847 17.1326 96.7029 17.6949 96.3483C18.2566 95.9857 18.8674 95.777 19.5275 95.7223C20.2601 95.6616 20.9483 95.7991 21.5921 96.1348C22.2359 96.4705 22.7619 96.9497 23.1701 97.5724C23.5777 98.1871 23.8128 98.8728 23.8755 99.6295ZM23.5407 99.256C23.5033 98.8052 23.3411 98.4134 23.0542 98.0805C22.7585 97.7403 22.3528 97.4902 21.837 97.3303C21.3132 97.1711 20.7011 97.1205 20.0008 97.1785C19.2602 97.2399 18.6094 97.4073 18.0485 97.6807C17.4795 97.9548 17.0477 98.3189 16.753 98.7729C16.4583 99.2269 16.3346 99.7397 16.382 100.311C16.4427 101.044 16.7671 101.584 17.3552 101.933C17.9353 102.282 18.7204 102.415 19.7106 102.333C20.4914 102.269 21.1821 102.094 21.7826 101.809C22.3744 101.517 22.8264 101.151 23.1385 100.712C23.45 100.265 23.584 99.7793 23.5407 99.256Z" fill="url(#paint8_linear_107_2331)"/>
<path d="M25.8435 76.5773C25.659 77.3055 25.3261 77.9128 24.8447 78.3992C24.3573 78.8757 23.7843 79.1972 23.1255 79.3637C22.4609 79.5204 21.7841 79.5114 21.095 79.3369C20.2885 79.1327 19.651 78.7546 19.1825 78.2027C18.7061 77.6487 18.4034 77.018 18.2743 76.3103C18.1472 75.5949 18.1679 74.9043 18.3364 74.2387C18.5248 73.4948 18.8666 72.8856 19.3617 72.411C19.849 71.9345 20.4161 71.6198 21.0631 71.467C21.7121 71.3064 22.3576 71.3074 22.9997 71.47C23.7122 71.6504 24.3185 72.0039 24.8184 72.5305C25.3184 73.0571 25.6603 73.6811 25.8442 74.4026C26.0301 75.1163 26.0299 75.8412 25.8435 76.5773ZM25.648 76.1153C25.759 75.6768 25.7329 75.2535 25.5696 74.8455C25.4004 74.4277 25.0978 74.0595 24.6619 73.7408C24.2182 73.4201 23.6557 73.1735 22.9745 73.001C22.2541 72.8185 21.5842 72.7655 20.9649 72.842C20.3378 72.9165 19.8111 73.1206 19.385 73.4544C18.9588 73.7881 18.6754 74.2329 18.5346 74.7889C18.3541 75.5014 18.4855 76.118 18.9286 76.6385C19.3639 77.157 20.0631 77.5383 21.0263 77.7822C21.7858 77.9745 22.4958 78.0335 23.1563 77.9591C23.8109 77.8749 24.3571 77.6757 24.7949 77.3616C25.2347 77.0397 25.5191 76.6243 25.648 76.1153Z" fill="url(#paint9_linear_107_2331)"/>
<path d="M24.9897 60.8559C24.5903 60.6807 24.2353 60.6352 23.9249 60.7196C23.6177 60.7965 23.3927 60.9977 23.25 61.3232C23.2435 61.338 23.218 61.3357 23.1736 61.3162C23.1293 61.2967 23.1103 61.2796 23.1168 61.2648L23.3615 60.7371C23.4996 60.4625 23.606 60.2401 23.6806 60.0699C23.7423 59.9294 23.8241 59.7227 23.9261 59.4499L24.1389 58.9347C24.1454 58.9199 24.1708 58.9222 24.2152 58.9417C24.2596 58.9611 24.2785 58.9783 24.272 58.9931C24.1455 59.2816 24.1612 59.5575 24.3191 59.8208C24.477 60.0841 24.7557 60.3034 25.1552 60.4786L28.2398 61.8317C28.7576 62.0588 29.1623 62.373 29.4537 62.7743C29.7452 63.1756 29.9057 63.6341 29.9353 64.1499C29.9607 64.655 29.8534 65.1812 29.6133 65.7286C29.3731 66.276 29.0571 66.7151 28.665 67.0459C28.2729 67.3767 27.8273 67.5782 27.3282 67.6503C26.8249 67.7118 26.307 67.6257 25.7744 67.3921L22.1904 65.82C21.9685 65.7227 21.796 65.6735 21.673 65.6725C21.5532 65.664 21.4505 65.7072 21.3648 65.8019C21.275 65.886 21.1798 66.0427 21.0792 66.272C21.0695 66.2942 21.0424 66.2956 20.9981 66.2761C20.9537 66.2566 20.9364 66.2358 20.9461 66.2136L21.2151 65.6304C21.3792 65.2966 21.505 65.0298 21.5926 64.8301C21.69 64.6082 21.8059 64.3239 21.9403 63.9771L22.1775 63.4063C22.1872 63.3841 22.2143 63.3828 22.2586 63.4022C22.303 63.4217 22.3203 63.4425 22.3106 63.4647C22.21 63.694 22.1576 63.8739 22.1533 64.0044C22.1523 64.1274 22.1975 64.2354 22.289 64.3285C22.3763 64.4109 22.5309 64.5008 22.7528 64.5981L25.9263 65.9901C26.8065 66.3762 27.5337 66.4879 28.1079 66.3252C28.682 66.1625 29.1086 65.7631 29.3877 65.1269C29.657 64.5129 29.6829 63.951 29.4656 63.4411C29.2408 62.9279 28.7808 62.5188 28.0854 62.2138L24.9897 60.8559Z" fill="url(#paint10_linear_107_2331)"/>
<path d="M37.2289 51.7602C37.2377 51.7466 37.2624 51.7531 37.303 51.7796C37.3436 51.8061 37.3594 51.8262 37.3506 51.8397L36.171 53.6452C36.0738 53.794 35.6255 53.8967 34.8262 53.9535C34.0202 54.0058 32.9459 54.0034 31.6034 53.9464C31.5748 54.0049 31.5273 54.0849 31.4611 54.1864C31.2888 54.4501 31.1639 54.6338 31.0864 54.7376L33.3281 56.2022C33.5378 56.3392 33.701 56.4217 33.8177 56.4497C33.9345 56.4778 34.0407 56.4555 34.1364 56.3829C34.2364 56.3036 34.3572 56.1557 34.4985 55.9393C34.5074 55.9258 34.5321 55.9323 34.5727 55.9588C34.6132 55.9853 34.6291 56.0053 34.6203 56.0188C34.4745 56.242 34.3562 56.4156 34.2655 56.5396L33.7517 57.3039L33.2781 58.051C33.1965 58.1907 33.0806 58.3755 32.9304 58.6054C32.9171 58.6257 32.8902 58.6226 32.8496 58.5961C32.8091 58.5696 32.7954 58.5462 32.8087 58.5259C32.95 58.3095 33.0347 58.1429 33.0628 58.0262C33.0952 57.9026 33.0752 57.793 33.0026 57.6974C32.9277 57.5905 32.7888 57.4708 32.5859 57.3383L27.8895 54.2699C27.6867 54.1374 27.5268 54.0571 27.4101 54.0291C27.2933 54.001 27.1849 54.0267 27.0848 54.106C26.978 54.1809 26.8561 54.3232 26.7191 54.5329C26.7103 54.5464 26.6856 54.5399 26.645 54.5134C26.6044 54.4869 26.5886 54.4669 26.5974 54.4533L26.9588 53.9224C27.1755 53.6201 27.3435 53.3777 27.4628 53.1951C27.613 52.9652 27.7597 52.7185 27.9029 52.4551C27.9536 52.3627 28.0175 52.2501 28.0947 52.1172C28.1763 51.9775 28.2701 51.8266 28.3761 51.6643C28.7782 51.0489 29.2046 50.6473 29.6554 50.4594C30.0995 50.267 30.5244 50.3034 30.9301 50.5685C31.302 50.8115 31.5739 51.1338 31.7456 51.5355C31.9106 51.9328 31.974 52.3601 31.9356 52.8175C33.1006 52.8067 34.0322 52.7689 34.7306 52.7042C35.429 52.6394 35.9758 52.5335 36.371 52.3865C36.7662 52.2394 37.0522 52.0307 37.2289 51.7602ZM30.8024 54.5521C30.9355 54.4074 31.0772 54.2202 31.2274 53.9902C31.4836 53.598 31.5588 53.2467 31.4528 52.9363C31.3445 52.6147 31.047 52.2948 30.5601 51.9767C30.0056 51.6144 29.5705 51.4459 29.2548 51.4713C28.9392 51.4966 28.6819 51.6614 28.4831 51.9657C28.3064 52.2362 28.2312 52.4621 28.2575 52.6433C28.2838 52.8246 28.4154 52.9925 28.652 53.1471L30.8024 54.5521Z" fill="url(#paint11_linear_107_2331)"/>
<path d="M47.2441 31.8804C47.2384 31.8336 47.2299 31.8095 47.2185 31.8081C47.2086 31.7954 47.1813 31.8063 47.1367 31.8411C46.41 32.4067 45.8778 32.867 45.54 33.2221C45.2036 33.5658 44.9838 33.9211 44.8804 34.2882C44.7722 34.6488 44.7727 35.0834 44.882 35.5921C44.8805 35.6034 44.8703 35.6165 44.8512 35.6314C44.7938 35.6761 44.7584 35.6832 44.7449 35.6527L43.8324 33.6913C43.8275 33.6849 43.8378 33.6718 43.8632 33.652C43.927 33.6023 43.9599 33.5921 43.9621 33.6211C43.9706 33.6452 43.9872 33.6732 44.012 33.705C44.0716 33.7815 44.1463 33.8052 44.2363 33.7762C44.3326 33.7421 44.4923 33.6383 44.7155 33.4646L48.2054 30.7483C48.2373 30.7235 48.272 30.722 48.3095 30.744C48.3535 30.761 48.3733 30.7865 48.3691 30.8205L49.4144 38.989C49.4137 39.0407 49.4215 39.0705 49.4378 39.0783C49.4491 39.0797 49.4739 39.0655 49.5122 39.0357L51.4436 37.5324C51.673 37.3538 51.8515 37.1228 51.9789 36.8394C52.1014 36.5496 52.1622 36.2463 52.1614 35.9296C52.1606 35.6129 52.0925 35.3282 51.9571 35.0753C51.9486 35.0512 51.9602 35.0268 51.9921 35.002C52.024 34.9772 52.0474 34.9743 52.0622 34.9934L53.0075 36.4841C53.0224 36.5032 53.0302 36.5329 53.0309 36.5733C53.033 36.6024 53.0213 36.6268 52.9958 36.6467C52.0361 37.3732 50.5045 38.555 48.401 40.1923C48.3755 40.2122 48.3465 40.2143 48.3139 40.1987C48.2763 40.1768 48.2572 40.1456 48.2564 40.1052L47.2441 31.8804Z" fill="url(#paint12_linear_107_2331)"/>
<path d="M56.8349 26.7776C56.9733 27.0334 57.1603 27.2261 57.3958 27.3558C57.6384 27.4817 57.896 27.5673 58.1686 27.6127C58.4411 27.6581 58.7984 27.6989 59.2405 27.7352C59.7188 27.7703 60.1106 27.8154 60.416 27.8706C60.7214 27.9257 61.0159 28.0373 61.2997 28.2052C61.5796 28.366 61.806 28.6062 61.979 28.9259C62.1789 29.2953 62.2582 29.6795 62.2169 30.0784C62.1718 30.4702 62.0159 30.8439 61.7491 31.1996C61.4856 31.5442 61.1371 31.8338 60.7038 32.0683C60.3841 32.2413 60.0272 32.3794 59.6329 32.4825C59.2348 32.5786 58.9466 32.606 58.7682 32.5648C58.7173 32.5556 58.6754 32.5461 58.6425 32.5363C58.613 32.5156 58.5828 32.4768 58.552 32.42L57.6031 30.743L57.5974 30.7323C57.582 30.7039 57.5921 30.6801 57.6276 30.6608C57.6593 30.6345 57.6863 30.6336 57.7088 30.6582C58.1565 30.9762 58.5315 31.2279 58.8339 31.4133C59.1433 31.5948 59.4746 31.7232 59.8276 31.7985C60.1877 31.87 60.5241 31.8212 60.8367 31.652C61.1208 31.4982 61.3149 31.2968 61.4189 31.0476C61.519 30.7914 61.4691 30.4785 61.2692 30.1091C61.1 29.7965 60.881 29.5615 60.612 29.4039C60.3502 29.2425 60.0756 29.134 59.7883 29.0782C59.5009 29.0225 59.1217 28.9751 58.6506 28.9362C58.1904 28.9005 57.8221 28.8564 57.5457 28.8039C57.2765 28.7476 57.0147 28.6458 56.7606 28.4986C56.5064 28.3515 56.2986 28.1287 56.1371 27.8303C55.9334 27.4538 55.8689 27.08 55.9436 26.7089C56.0216 26.3269 56.1984 25.9832 56.474 25.6779C56.7458 25.3655 57.0699 25.1074 57.4465 24.9036C57.6951 24.7691 57.9607 24.6575 58.2434 24.5688C58.5222 24.473 58.7571 24.4148 58.948 24.3942C59.0273 24.388 59.0872 24.3969 59.1277 24.4209C59.1644 24.4377 59.1962 24.4711 59.2231 24.5208L60.0708 26.0872C60.0824 26.1086 60.0742 26.1359 60.0464 26.1694C60.0147 26.1957 59.9896 26.2001 59.9709 26.1826L59.7761 26.0263C59.3563 25.6749 58.9411 25.4082 58.5304 25.2263C58.1268 25.0406 57.7119 25.0631 57.2856 25.2938C57.0015 25.4476 56.8112 25.6561 56.715 25.9195C56.6258 26.179 56.6658 26.465 56.8349 26.7776Z" fill="url(#paint13_linear_107_2331)"/>
<path d="M67.9153 20.7575C67.0062 21.0696 66.5562 21.886 66.5655 23.2066C66.5657 23.2321 66.5467 23.2514 66.5085 23.2646C66.4677 23.27 66.4434 23.2613 66.4355 23.2384C66.3611 22.9223 66.2605 22.517 66.1334 22.0226C66.0038 21.5205 65.897 21.1472 65.813 20.9028C65.7999 20.8646 65.8125 20.8389 65.8507 20.8258C65.8965 20.8101 65.926 20.8213 65.9391 20.8595C65.9968 21.0276 66.2434 21.0369 66.6789 20.8874C67.3438 20.6847 68.1155 20.4326 68.9941 20.131C69.4448 19.9762 69.9197 19.8046 70.4187 19.6163L71.194 19.3373C71.4844 19.2376 71.6879 19.1464 71.8047 19.0636C71.9291 18.9782 71.9907 18.8716 71.9896 18.7439C71.9867 18.7107 72.0044 18.6876 72.0426 18.6745C72.0884 18.6587 72.1166 18.6661 72.1271 18.6967C72.1828 18.9338 72.282 19.3097 72.4245 19.8244C72.5747 20.3365 72.7023 20.7454 72.8072 21.051C72.815 21.0739 72.7999 21.0919 72.7617 21.105C72.7235 21.1181 72.6966 21.1145 72.6811 21.0942C72.3646 20.5453 71.9998 20.1794 71.5869 19.9967C71.1714 19.8062 70.7345 19.7897 70.2761 19.9471C70.0545 20.0231 69.9226 20.1239 69.8803 20.2495C69.843 20.3648 69.8702 20.5561 69.962 20.8235L71.7757 26.1066C71.857 26.3434 71.9389 26.5074 72.0215 26.5987C72.104 26.6899 72.2168 26.7323 72.3598 26.7259C72.5028 26.7195 72.7156 26.6678 72.9983 26.5708C73.0212 26.5629 73.0406 26.5819 73.0563 26.6277C73.072 26.6736 73.0684 26.7004 73.0455 26.7083C72.7705 26.8027 72.5514 26.8736 72.3884 26.9211L71.4333 27.2362L70.509 27.5663C70.3512 27.629 70.1309 27.7089 69.8482 27.8059C69.8253 27.8138 69.806 27.7948 69.7902 27.749C69.7745 27.7031 69.7781 27.6763 69.801 27.6684C70.0761 27.574 70.272 27.4854 70.3887 27.4026C70.5131 27.3172 70.5799 27.2131 70.589 27.0904C70.6031 26.9575 70.5709 26.7764 70.4922 26.5472L68.6707 21.2412C68.5815 20.9815 68.4868 20.8175 68.3866 20.7495C68.2863 20.6814 68.1292 20.6841 67.9153 20.7575Z" fill="url(#paint14_linear_107_2331)"/>
<path d="M86.6066 23.6738C86.6464 23.6672 86.6703 23.6877 86.6783 23.7355C86.6863 23.7833 86.6704 23.8106 86.6305 23.8172C86.4712 23.8438 86.2229 23.8771 85.8856 23.917C85.5323 23.9595 85.28 23.9934 85.1287 24.0187C84.9295 24.0519 84.6878 24.1005 84.4036 24.1643C84.1354 24.2254 83.9216 24.2693 83.7623 24.2958C83.7304 24.3012 83.7105 24.2799 83.7025 24.2321C83.6945 24.1843 83.7065 24.1578 83.7383 24.1524C83.9455 24.1179 84.0896 24.0734 84.1705 24.0189C84.2582 23.9551 84.2927 23.8675 84.2741 23.7559C84.2515 23.6205 84.1339 23.4067 83.9214 23.1146L82.8395 21.6368L79.8995 22.1274L79.6069 23.2449C79.5419 23.4933 79.526 23.717 79.5592 23.9162C79.6071 24.2031 79.7439 24.4095 79.9697 24.5356C80.2034 24.6604 80.4916 24.6942 80.8342 24.6371C80.874 24.6304 80.898 24.651 80.9059 24.6988C80.9139 24.7466 80.898 24.7738 80.8581 24.7805C80.7147 24.8044 80.5062 24.831 80.2327 24.8603C79.9273 24.8949 79.663 24.9308 79.4399 24.968C79.2248 25.0039 78.9672 25.0551 78.6671 25.1215C78.3989 25.1827 78.1811 25.2272 78.0138 25.2551C77.9819 25.2604 77.962 25.2392 77.954 25.1914C77.946 25.1436 77.958 25.117 77.9899 25.1117C78.2129 25.0745 78.3929 24.9994 78.5296 24.8865C78.665 24.7656 78.7892 24.577 78.902 24.3207C79.0135 24.0564 79.1343 23.6759 79.2643 23.1793L80.9064 17.0458C80.9184 17.0192 80.9522 17.0013 81.008 16.9919C81.0717 16.9813 81.1096 16.9873 81.1215 17.0099L85.0905 22.3913C85.4637 22.9104 85.7599 23.2623 85.9791 23.4468C86.1982 23.6314 86.4074 23.707 86.6066 23.6738ZM79.999 21.7668L82.6044 21.3321L80.7753 18.8365L79.999 21.7668Z" fill="url(#paint15_linear_107_2331)"/>
<path d="M93.589 22.5429C93.589 22.7529 93.6051 22.9064 93.6374 23.0033C93.6697 23.0922 93.7303 23.1528 93.8192 23.1851C93.9161 23.2174 94.0696 23.2336 94.2796 23.2336H94.6916C95.3216 23.2336 95.8668 23.068 96.3273 22.7368C96.7877 22.3975 97.0946 21.9411 97.2481 21.3676C97.2481 21.3515 97.2643 21.3434 97.2966 21.3434C97.3127 21.3434 97.3289 21.3515 97.345 21.3676C97.3693 21.3757 97.3814 21.3838 97.3814 21.3918C97.3087 22.1915 97.2723 22.8579 97.2723 23.3911C97.2723 23.4557 97.2562 23.5042 97.2239 23.5365C97.1996 23.5607 97.1552 23.5728 97.0906 23.5728H91.3717C91.3555 23.5728 91.3474 23.5486 91.3474 23.5001C91.3474 23.4517 91.3555 23.4274 91.3717 23.4274C91.6302 23.4274 91.8159 23.4072 91.929 23.3668C92.0502 23.3264 92.131 23.2497 92.1714 23.1366C92.2198 23.0155 92.2441 22.8337 92.2441 22.5914V16.9814C92.2441 16.7391 92.2198 16.5614 92.1714 16.4483C92.131 16.3352 92.0502 16.2585 91.929 16.2181C91.8079 16.1696 91.6221 16.1454 91.3717 16.1454C91.3555 16.1454 91.3474 16.1212 91.3474 16.0727C91.3474 16.0242 91.3555 16 91.3717 16L91.9896 16.0121C92.3612 16.0283 92.6681 16.0363 92.9105 16.0363C93.1528 16.0363 93.4597 16.0283 93.8313 16.0121L94.4492 16C94.4735 16 94.4856 16.0242 94.4856 16.0727C94.4856 16.1212 94.4735 16.1454 94.4492 16.1454C94.1988 16.1454 94.013 16.1696 93.8919 16.2181C93.7707 16.2585 93.6899 16.3393 93.6496 16.4604C93.6092 16.5735 93.589 16.7512 93.589 16.9936V22.5429Z" fill="url(#paint16_linear_107_2331)"/>
<path d="M116.809 26.3037C116.741 26.5023 116.707 26.6527 116.706 26.7549C116.707 26.8494 116.745 26.9264 116.818 26.9858C116.9 27.0478 117.04 27.1129 117.238 27.1811L117.628 27.3149C118.224 27.5195 118.793 27.5399 119.336 27.3762C119.882 27.2048 120.32 26.8728 120.652 26.3802C120.657 26.3649 120.675 26.3625 120.705 26.373C120.721 26.3782 120.733 26.3911 120.743 26.4117C120.764 26.4272 120.773 26.4387 120.77 26.4464C120.442 27.1791 120.191 27.7976 120.018 28.3019C119.997 28.363 119.966 28.4036 119.925 28.4237C119.894 28.4387 119.848 28.4357 119.787 28.4148L114.378 26.5578C114.362 26.5526 114.363 26.527 114.378 26.4812C114.394 26.4353 114.41 26.415 114.425 26.4203C114.669 26.5042 114.852 26.5454 114.972 26.544C115.099 26.5451 115.201 26.4988 115.276 26.4049C115.361 26.306 115.443 26.142 115.521 25.9128L117.343 20.6068C117.422 20.3776 117.456 20.2017 117.447 20.079C117.446 19.9589 117.394 19.8601 117.293 19.7826C117.194 19.6974 117.026 19.6141 116.789 19.5328C116.774 19.5276 116.774 19.502 116.79 19.4562C116.806 19.4104 116.821 19.3901 116.837 19.3953L117.417 19.6074C117.763 19.7433 118.051 19.8506 118.28 19.9293C118.509 20.008 118.802 20.1 119.159 20.2054L119.747 20.3946C119.77 20.4025 119.774 20.4293 119.758 20.4752C119.742 20.521 119.723 20.54 119.7 20.5321C119.463 20.4508 119.28 20.4134 119.149 20.4199C119.022 20.4188 118.919 20.4689 118.842 20.5704C118.767 20.6643 118.69 20.8258 118.611 21.055L116.809 26.3037Z" fill="url(#paint17_linear_107_2331)"/>
<path d="M131.346 34.0041C131.381 34.0233 131.387 34.0542 131.364 34.0968C131.341 34.1395 131.312 34.1512 131.276 34.132C131.134 34.0551 130.918 33.9288 130.627 33.7531C130.322 33.5697 130.102 33.4415 129.967 33.3685C129.79 33.2724 129.569 33.1622 129.306 33.038C129.057 32.9215 128.861 32.8248 128.719 32.7479C128.691 32.7325 128.688 32.7035 128.711 32.6609C128.734 32.6183 128.76 32.6047 128.788 32.62C128.973 32.72 129.114 32.7734 129.211 32.7801C129.32 32.7836 129.401 32.7357 129.455 32.6362C129.52 32.5154 129.558 32.2745 129.57 31.9135L129.624 30.0828L127.003 28.6641L126.085 29.3663C125.881 29.5223 125.731 29.6892 125.635 29.8668C125.497 30.1225 125.478 30.3695 125.579 30.6077C125.687 30.8497 125.893 31.0534 126.199 31.2187C126.234 31.2379 126.241 31.2688 126.217 31.3115C126.194 31.3541 126.165 31.3658 126.13 31.3466C126.002 31.2774 125.821 31.1703 125.587 31.0254C125.325 30.8651 125.094 30.7311 124.895 30.6235C124.703 30.5197 124.469 30.4018 124.191 30.2699C123.942 30.1534 123.743 30.0548 123.593 29.9741C123.565 29.9587 123.562 29.9297 123.585 29.8871C123.608 29.8444 123.634 29.8308 123.663 29.8462C123.862 29.9538 124.05 30.0051 124.227 30C124.408 29.9878 124.622 29.9152 124.868 29.7823C125.119 29.6422 125.448 29.4161 125.855 29.104L130.918 25.2724C130.944 25.2588 130.982 25.2655 131.032 25.2924C131.088 25.3231 131.115 25.3511 131.11 25.3762L130.937 32.0608C130.913 32.6997 130.93 33.1593 130.99 33.4396C131.049 33.7198 131.168 33.908 131.346 34.0041ZM127.303 28.4407L129.626 29.6979L129.715 26.6051L127.303 28.4407Z" fill="url(#paint18_linear_107_2331)"/>
<path d="M146.55 36.1136C146.562 36.1236 146.554 36.1477 146.524 36.1859C146.494 36.2241 146.473 36.2383 146.46 36.2284C146.224 36.0448 145.922 35.9732 145.553 36.0134C145.195 36.0523 144.813 36.1949 144.406 36.4413L138.961 39.7879C138.935 39.8085 138.89 39.7939 138.826 39.7443C138.762 39.6947 138.737 39.6547 138.75 39.6242L139.543 36.0804L136.561 37.92C136.535 37.9405 136.49 37.926 136.426 37.8763C136.362 37.8267 136.337 37.7867 136.35 37.7562L137.938 30.6857C138.002 30.4073 138.036 30.1986 138.042 30.0598C138.054 29.9259 138.034 29.8132 137.982 29.7218C137.942 29.629 137.861 29.5354 137.74 29.4412C137.721 29.4263 137.726 29.3997 137.756 29.3615C137.786 29.3232 137.81 29.3116 137.829 29.3264C137.925 29.4009 137.99 29.4561 138.023 29.4923C138.14 29.6043 138.301 29.7396 138.505 29.8984C138.932 30.2308 139.297 30.5048 139.6 30.7202C139.688 30.7784 139.793 30.8546 139.914 30.9488C139.933 30.9637 139.928 30.9903 139.898 31.0285C139.868 31.0668 139.844 31.0784 139.825 31.0636C139.665 30.9395 139.538 30.8662 139.443 30.8435C139.355 30.8257 139.278 30.8583 139.214 30.9411C139.129 31.0495 139.039 31.3169 138.942 31.7434L137.821 36.7355L139.651 35.6267L140.338 32.5536C140.409 32.2398 140.438 31.9915 140.427 31.8087C140.421 31.6196 140.363 31.4828 140.255 31.3985C140.236 31.3836 140.241 31.357 140.271 31.3188C140.301 31.2805 140.325 31.2688 140.344 31.2837C140.408 31.3333 140.476 31.3968 140.549 31.474C140.633 31.5498 140.755 31.6498 140.915 31.7738C141.278 32.0566 141.586 32.2859 141.838 32.4617C141.907 32.5049 141.992 32.5662 142.094 32.6456C142.113 32.6605 142.108 32.6871 142.078 32.7253C142.048 32.7636 142.024 32.7752 142.005 32.7604C141.915 32.6909 141.838 32.6516 141.774 32.6423C141.721 32.6317 141.672 32.655 141.627 32.7124C141.543 32.8208 141.448 33.1204 141.342 33.6113L141.071 34.828L141.808 34.3735C142.232 34.1193 142.515 33.8997 142.659 33.7149C142.803 33.53 142.795 33.3756 142.636 33.2515C142.616 33.2367 142.622 33.2101 142.652 33.1718C142.681 33.1336 142.706 33.1219 142.725 33.1368C142.776 33.1765 142.825 33.225 142.873 33.2824C142.931 33.3384 143.082 33.4607 143.324 33.6492C143.432 33.7336 143.568 33.8289 143.731 33.9352L144.092 34.201C144.105 34.2109 144.096 34.235 144.067 34.2733C144.037 34.3115 144.016 34.3257 144.003 34.3158C143.576 33.9834 142.929 34.0841 142.063 34.618L140.973 35.2892L140.237 38.6014L144.038 36.2626C144.274 36.1182 144.456 35.9631 144.585 35.7974C144.739 35.5997 144.809 35.4039 144.796 35.2098C144.79 35.0206 144.704 34.8615 144.538 34.7325C144.519 34.7176 144.525 34.6911 144.554 34.6528C144.584 34.6146 144.609 34.6029 144.628 34.6178L145.06 34.9697C145.28 35.161 145.485 35.3311 145.676 35.48C145.804 35.5792 145.955 35.687 146.131 35.8032L146.55 36.1136Z" fill="url(#paint19_linear_107_2331)"/>
<path d="M153.134 56.1202C152.63 55.3493 152.335 54.5871 152.248 53.8335C152.167 53.0754 152.275 52.383 152.569 51.7562C152.864 51.1294 153.313 50.6194 153.914 50.2261C154.557 49.8064 155.242 49.6 155.97 49.6067C156.703 49.6202 157.404 49.8374 158.075 50.2581C158.752 50.6744 159.336 51.2578 159.826 52.0084C160.038 52.333 160.223 52.6753 160.381 53.0352C160.546 53.3908 160.652 53.6931 160.699 53.9422C160.72 54.0343 160.723 54.0903 160.707 54.1103C160.702 54.1327 160.655 54.1782 160.565 54.2468L159.241 55.2998C159.221 55.3131 159.194 55.3016 159.161 55.2655C159.132 55.2361 159.129 55.2091 159.151 55.1847C159.317 54.951 159.468 54.6499 159.603 54.2815C159.739 53.9131 159.801 53.5059 159.789 53.06C159.778 52.614 159.635 52.1814 159.361 51.7621C159.078 51.3294 158.702 51.0111 158.231 50.8073C157.76 50.6035 157.236 50.5404 156.66 50.618C156.088 50.7023 155.511 50.9344 154.929 51.3143C154.294 51.7296 153.803 52.2191 153.457 52.7827C153.116 53.3531 152.946 53.9419 152.947 54.549C152.948 55.1562 153.123 55.7269 153.472 56.2611C153.653 56.5384 153.823 56.7315 153.981 56.8405C154.139 56.9495 154.328 56.9804 154.548 56.9332C154.768 56.8859 155.05 56.7497 155.395 56.5243C155.747 56.2946 155.977 56.1153 156.086 55.9863C156.201 55.853 156.238 55.7032 156.197 55.537C156.161 55.3776 156.034 55.1322 155.818 54.8009C155.791 54.7603 155.805 54.7223 155.859 54.687C155.879 54.6737 155.899 54.6661 155.917 54.664C155.946 54.6643 155.965 54.6712 155.973 54.6847C156.315 55.2816 156.603 55.7592 156.837 56.1176C157.063 56.4625 157.307 56.8143 157.57 57.173C157.588 57.2 157.573 57.229 157.526 57.2599C157.483 57.2976 157.45 57.2996 157.428 57.2658C157.355 57.1396 157.274 57.0672 157.185 57.0484C157.107 57.032 156.985 57.0678 156.821 57.1559C156.657 57.244 156.382 57.414 155.996 57.6658C155.692 57.8646 155.482 58.0162 155.367 58.1204C155.256 58.2314 155.184 58.2979 155.15 58.32C155.109 58.3465 155.078 58.3574 155.056 58.3527C155.033 58.348 155 58.3265 154.955 58.288C154.196 57.5393 153.589 56.8167 153.134 56.1202Z" fill="url(#paint20_linear_107_2331)"/>
<path d="M160.305 69.6334C160.312 69.6482 160.293 69.6654 160.248 69.6848C160.204 69.7043 160.178 69.7066 160.172 69.6918L159.306 67.7167C159.234 67.554 159.393 67.1225 159.783 66.4224C160.18 65.719 160.77 64.8209 161.552 63.7281C161.518 63.6721 161.477 63.5887 161.429 63.4777C161.302 63.1892 161.217 62.9842 161.172 62.8626L158.72 63.9382C158.491 64.0388 158.332 64.1303 158.245 64.2127C158.158 64.2952 158.118 64.3962 158.127 64.516C158.138 64.6432 158.196 64.8252 158.3 65.0619C158.306 65.0767 158.287 65.0938 158.243 65.1133C158.199 65.1327 158.173 65.1351 158.167 65.1203C158.06 64.8762 157.979 64.6822 157.925 64.5384L157.566 63.6903L157.2 62.8851C157.127 62.7404 157.036 62.5423 156.926 62.2908C156.916 62.2686 156.933 62.2478 156.978 62.2283C157.022 62.2089 157.049 62.2102 157.059 62.2324C157.163 62.4691 157.256 62.6311 157.338 62.7185C157.424 62.8132 157.526 62.8564 157.646 62.8479C157.777 62.8436 157.953 62.7928 158.175 62.6955L163.312 60.442C163.534 60.3447 163.689 60.2548 163.776 60.1724C163.863 60.09 163.901 59.9852 163.89 59.858C163.885 59.7275 163.833 59.5477 163.732 59.3184C163.726 59.3036 163.745 59.2864 163.789 59.267C163.833 59.2475 163.859 59.2452 163.865 59.2599L164.112 59.8529C164.247 60.1997 164.358 60.4729 164.445 60.6726C164.556 60.9241 164.682 61.1819 164.824 61.4459C164.874 61.5388 164.933 61.6539 165.002 61.7912C165.074 61.9359 165.149 62.097 165.227 62.2745C165.523 62.9477 165.626 63.5244 165.536 64.0046C165.454 64.4815 165.192 64.8173 164.748 65.012C164.341 65.1905 163.922 65.2417 163.492 65.1658C163.069 65.0867 162.677 64.906 162.315 64.6237C161.687 65.6049 161.209 66.4055 160.881 67.0256C160.553 67.6457 160.343 68.1614 160.25 68.5727C160.157 68.9839 160.175 69.3375 160.305 69.6334ZM161.483 62.7263C161.531 62.9168 161.61 63.1378 161.721 63.3894C161.909 63.8184 162.162 64.0735 162.48 64.1546C162.808 64.2398 163.239 64.1656 163.771 63.932C164.378 63.6659 164.757 63.3938 164.908 63.1157C165.06 62.8376 165.062 62.5321 164.916 62.1992C164.787 61.9033 164.639 61.7168 164.473 61.6398C164.306 61.5627 164.094 61.5809 163.835 61.6945L161.483 62.7263Z" fill="url(#paint21_linear_107_2331)"/>
<path d="M162.104 76.9164C161.92 76.1882 161.923 75.4956 162.115 74.8387C162.317 74.1877 162.668 73.6322 163.168 73.1722C163.678 72.7181 164.278 72.4038 164.967 72.2293C165.773 72.0251 166.514 72.0541 167.189 72.3166C167.871 72.577 168.438 72.9877 168.888 73.5486C169.34 74.1173 169.651 74.7345 169.819 75.4001C170.008 76.144 169.997 76.8425 169.787 77.4955C169.586 78.1465 169.237 78.6932 168.74 79.1355C168.246 79.5857 167.678 79.892 167.036 80.0546C166.323 80.2351 165.622 80.2127 164.931 79.9876C164.241 79.7624 163.643 79.3763 163.138 78.8293C162.635 78.2901 162.29 77.6525 162.104 76.9164ZM162.496 77.2297C162.607 77.6682 162.831 78.028 163.169 78.3091C163.517 78.596 163.958 78.7759 164.493 78.8487C165.036 78.9195 165.648 78.8687 166.329 78.6962C167.05 78.5137 167.664 78.2415 168.172 77.8795C168.688 77.5155 169.054 77.0853 169.27 76.589C169.486 76.0927 169.524 75.5665 169.383 75.0106C169.203 74.298 168.794 73.8183 168.156 73.5714C167.527 73.3225 166.73 73.3201 165.767 73.564C165.008 73.7563 164.355 74.0424 163.81 74.4222C163.274 74.8078 162.888 75.2429 162.653 75.7275C162.419 76.22 162.367 76.7207 162.496 77.2297Z" fill="url(#paint22_linear_107_2331)"/>
<path d="M170.337 90.3366C170.772 90.3006 171.106 90.1716 171.339 89.9497C171.572 89.7358 171.674 89.4518 171.645 89.0976C171.644 89.0815 171.667 89.0714 171.715 89.0674C171.764 89.0634 171.788 89.0695 171.79 89.0856L171.826 89.6662C171.835 89.9734 171.847 90.2196 171.863 90.4047C171.875 90.5577 171.902 90.7784 171.942 91.0669L172 91.6213C172.001 91.6374 171.978 91.6475 171.929 91.6515C171.881 91.6555 171.856 91.6494 171.855 91.6333C171.829 91.3194 171.684 91.0842 171.42 90.9278C171.155 90.7714 170.806 90.7112 170.371 90.7472L167.014 91.0253C166.451 91.072 165.946 90.9883 165.498 90.7741C165.051 90.5599 164.691 90.233 164.42 89.7935C164.157 89.3614 164.001 88.8475 163.952 88.2518C163.903 87.6561 163.972 87.1194 164.159 86.6419C164.346 86.1644 164.642 85.7751 165.047 85.4741C165.46 85.1805 165.957 85.0097 166.536 84.9616L170.437 84.6384C170.678 84.6184 170.853 84.5796 170.962 84.522C171.071 84.4724 171.141 84.3855 171.171 84.2614C171.21 84.1447 171.219 83.9616 171.199 83.7121C171.197 83.6879 171.22 83.6738 171.268 83.6698C171.316 83.6658 171.342 83.6759 171.344 83.7001L171.385 84.341C171.399 84.7127 171.415 85.0072 171.433 85.2245C171.453 85.466 171.487 85.7713 171.534 86.1402L171.597 86.7551C171.599 86.7792 171.576 86.7933 171.527 86.7973C171.479 86.8013 171.454 86.7912 171.452 86.7671C171.431 86.5175 171.392 86.3344 171.333 86.2176C171.276 86.1089 171.185 86.0354 171.06 85.9971C170.944 85.9662 170.765 85.9608 170.523 85.9808L167.07 86.2669C166.112 86.3463 165.419 86.5942 164.992 87.0106C164.564 87.4269 164.379 87.9813 164.437 88.6736C164.492 89.3418 164.737 89.8483 165.17 90.1933C165.612 90.5377 166.212 90.6785 166.968 90.6158L170.337 90.3366Z" fill="url(#paint23_linear_107_2331)"/>
<path d="M165.172 99.5493C164.914 99.5279 164.723 99.5404 164.597 99.5868C164.48 99.6338 164.391 99.7318 164.33 99.8807C164.268 100.038 164.223 100.289 164.194 100.635C164.192 100.66 164.167 100.67 164.119 100.666C164.071 100.662 164.048 100.648 164.05 100.623C164.077 100.293 164.102 100.036 164.126 99.8516L164.225 98.8021L164.286 97.9196C164.291 97.7579 164.305 97.5403 164.328 97.2666C164.33 97.2424 164.355 97.2323 164.403 97.2363C164.451 97.2403 164.475 97.2544 164.473 97.2786C164.451 97.5362 164.456 97.723 164.487 97.839C164.517 97.9631 164.587 98.0499 164.696 98.0995C164.814 98.1498 164.993 98.1849 165.235 98.2049L170.825 98.6682C171.067 98.6882 171.246 98.6828 171.362 98.6519C171.478 98.6209 171.561 98.5468 171.611 98.4294C171.669 98.3126 171.709 98.1295 171.73 97.8799C171.732 97.8558 171.757 97.8457 171.805 97.8497C171.853 97.8537 171.877 97.8678 171.875 97.8919L171.809 98.5309C171.763 98.8999 171.73 99.193 171.712 99.4104C171.696 99.6036 171.689 99.834 171.691 100.102C171.691 100.207 171.688 100.34 171.683 100.502C171.677 100.664 171.666 100.849 171.649 101.059C171.581 101.88 171.354 102.513 170.968 102.96C170.591 103.407 170.044 103.6 169.327 103.541C168.828 103.5 168.416 103.336 168.092 103.05C167.767 102.763 167.533 102.408 167.39 101.982C167.246 101.565 167.192 101.143 167.227 100.717C167.245 100.499 167.281 100.312 167.335 100.154C167.336 100.138 167.357 100.132 167.397 100.135C167.421 100.137 167.445 100.143 167.468 100.153C167.491 100.171 167.498 100.188 167.489 100.203C167.446 100.321 167.419 100.457 167.406 100.61C167.376 100.98 167.523 101.3 167.849 101.571C168.175 101.849 168.656 102.014 169.292 102.067C169.928 102.12 170.43 102.023 170.799 101.778C171.167 101.541 171.372 101.165 171.415 100.65C171.434 100.425 171.394 100.268 171.296 100.178C171.198 100.089 170.996 100.032 170.69 100.007L165.172 99.5493Z" fill="url(#paint24_linear_107_2331)"/>
<path d="M164.908 126.694C164.756 127.042 164.572 127.38 164.357 127.709C164.146 128.049 163.95 128.307 163.767 128.482C163.715 128.539 163.668 128.567 163.624 128.566C163.585 128.575 163.523 128.565 163.438 128.537L161.833 128.005C161.811 127.995 161.804 127.97 161.813 127.93C161.822 127.889 161.844 127.868 161.88 127.867C162.578 127.926 163.17 127.832 163.657 127.587C164.151 127.345 164.516 126.954 164.753 126.414C164.974 125.911 165.035 125.4 164.936 124.881C164.842 124.372 164.594 123.892 164.191 123.442C163.786 123 163.246 122.631 162.573 122.336C161.892 122.037 161.243 121.889 160.625 121.891C160.01 121.904 159.473 122.052 159.014 122.336C158.559 122.63 158.214 123.043 157.98 123.576C157.757 124.086 157.705 124.575 157.826 125.043C157.955 125.514 158.269 126.044 158.769 126.634C158.788 126.651 158.786 126.677 158.762 126.711C158.738 126.744 158.716 126.756 158.693 126.747L157.39 125.977C157.308 125.923 157.255 125.882 157.232 125.854C157.217 125.83 157.209 125.778 157.208 125.698C157.263 124.911 157.442 124.169 157.747 123.474C158.095 122.682 158.554 122.037 159.126 121.538C159.702 121.05 160.337 120.746 161.033 120.628C161.729 120.51 162.421 120.602 163.109 120.903C163.811 121.212 164.357 121.667 164.745 122.27C165.138 122.883 165.35 123.576 165.382 124.348C165.41 125.128 165.252 125.91 164.908 126.694Z" fill="url(#paint25_linear_107_2331)"/>
<path d="M152.672 132.587C153.083 131.958 153.595 131.492 154.208 131.188C154.824 130.896 155.47 130.778 156.147 130.834C156.827 130.902 157.464 131.13 158.059 131.519C158.756 131.974 159.236 132.538 159.5 133.212C159.77 133.891 159.852 134.586 159.744 135.297C159.632 136.015 159.388 136.662 159.013 137.236C158.593 137.879 158.072 138.344 157.45 138.632C156.834 138.925 156.195 139.038 155.534 138.972C154.868 138.914 154.258 138.703 153.703 138.341C153.088 137.939 152.629 137.408 152.327 136.747C152.026 136.087 151.905 135.386 151.965 134.644C152.021 133.908 152.257 133.223 152.672 132.587ZM152.707 133.087C152.459 133.466 152.347 133.875 152.369 134.314C152.393 134.764 152.56 135.21 152.868 135.653C153.184 136.101 153.636 136.517 154.224 136.901C154.846 137.308 155.463 137.575 156.073 137.704C156.691 137.837 157.255 137.815 157.766 137.638C158.278 137.46 158.69 137.132 159.004 136.652C159.406 136.036 159.482 135.41 159.232 134.774C158.989 134.143 158.451 133.555 157.619 133.011C156.963 132.583 156.311 132.297 155.662 132.153C155.016 132.02 154.434 132.031 153.918 132.186C153.398 132.347 152.994 132.648 152.707 133.087Z" fill="url(#paint26_linear_107_2331)"/>
<path d="M142.534 145.402C142.523 145.413 142.5 145.403 142.464 145.37C142.429 145.337 142.416 145.315 142.427 145.303C142.613 145.101 142.764 144.943 142.879 144.83L143.496 144.178L144.102 143.502C144.2 143.383 144.339 143.226 144.52 143.03C144.536 143.012 144.562 143.02 144.598 143.052C144.634 143.085 144.643 143.11 144.627 143.128C144.397 143.378 144.271 143.575 144.248 143.719C144.226 143.862 144.309 144.022 144.5 144.197L144.659 144.327L148.478 147.497L145.863 141.697C145.85 141.663 145.86 141.628 145.893 141.593C145.925 141.557 145.959 141.544 145.994 141.554L152.358 143.246L149.205 140.212C148.89 139.911 148.58 139.741 148.275 139.702C147.971 139.674 147.707 139.782 147.483 140.026C147.466 140.044 147.44 140.036 147.405 140.004C147.369 139.971 147.359 139.945 147.376 139.928C147.523 139.767 147.641 139.645 147.729 139.561L148.19 139.079L148.698 138.51C148.779 138.409 148.894 138.278 149.042 138.118C149.058 138.1 149.084 138.108 149.12 138.141C149.155 138.173 149.165 138.199 149.149 138.216C148.924 138.46 148.839 138.738 148.891 139.05C148.944 139.363 149.126 139.667 149.435 139.963L153.052 143.44L153.069 143.439C153.398 143.523 153.674 143.546 153.895 143.508C154.111 143.476 154.295 143.377 154.449 143.211C154.465 143.193 154.491 143.201 154.527 143.233C154.562 143.266 154.572 143.292 154.556 143.309L154.161 143.72C154.078 143.798 153.977 143.902 153.857 144.033L153.431 144.513C153.387 144.572 153.327 144.644 153.251 144.727C153.18 144.804 153.098 144.839 153.006 144.831C152.915 144.824 152.716 144.783 152.41 144.71L146.975 143.297L149.302 148.569C149.353 148.681 149.376 148.769 149.373 148.832C149.371 148.906 149.339 148.976 149.279 149.041C149.23 149.095 149.172 149.151 149.106 149.211C149.034 149.277 148.958 149.355 148.875 149.444L148.4 149.978C148.33 150.067 148.223 150.188 148.081 150.343C148.064 150.361 148.038 150.353 148.003 150.32C147.967 150.287 147.957 150.262 147.974 150.244C148.231 149.965 148.361 149.711 148.363 149.482C148.365 149.253 148.241 149.036 147.993 148.829L143.748 145.317C143.553 145.159 143.4 145.057 143.29 145.01C143.174 144.969 143.063 144.977 142.956 145.032C142.845 145.094 142.704 145.217 142.534 145.402Z" fill="url(#paint27_linear_107_2331)"/>
<path d="M138.098 150.173C137.94 149.969 137.801 149.837 137.682 149.776C137.568 149.721 137.435 149.722 137.284 149.778C137.127 149.839 136.911 149.976 136.637 150.189C136.618 150.204 136.594 150.193 136.564 150.154C136.534 150.116 136.529 150.09 136.548 150.075C136.809 149.871 137.016 149.716 137.167 149.608L138.007 148.97L138.697 148.417C138.82 148.312 138.989 148.174 139.206 148.006C139.225 147.991 139.25 148.003 139.279 148.041C139.309 148.079 139.314 148.106 139.295 148.121C139.091 148.279 138.957 148.409 138.893 148.511C138.822 148.617 138.805 148.727 138.843 148.841C138.885 148.962 138.981 149.117 139.13 149.309L142.576 153.736C142.725 153.927 142.85 154.055 142.951 154.119C143.052 154.184 143.163 154.195 143.284 154.152C143.409 154.116 143.57 154.021 143.768 153.867C143.787 153.852 143.812 153.864 143.841 153.902C143.871 153.94 143.876 153.967 143.857 153.982L143.343 154.367C143.04 154.582 142.802 154.757 142.63 154.891C142.477 155.01 142.303 155.161 142.108 155.344C142.03 155.415 141.929 155.503 141.807 155.608C141.684 155.714 141.54 155.831 141.375 155.96C140.724 156.466 140.105 156.729 139.515 156.747C138.931 156.772 138.418 156.501 137.976 155.934C137.669 155.539 137.51 155.125 137.501 154.692C137.491 154.259 137.595 153.846 137.811 153.453C138.02 153.064 138.294 152.739 138.632 152.476C138.804 152.342 138.966 152.241 139.118 152.174C139.131 152.164 139.15 152.175 139.175 152.207C139.189 152.226 139.201 152.247 139.21 152.271C139.212 152.3 139.204 152.317 139.186 152.32C139.071 152.369 138.953 152.441 138.831 152.535C138.538 152.763 138.403 153.089 138.425 153.512C138.441 153.94 138.644 154.405 139.036 154.909C139.428 155.413 139.839 155.717 140.269 155.823C140.693 155.933 141.109 155.829 141.517 155.512C141.695 155.373 141.784 155.237 141.783 155.105C141.783 154.972 141.688 154.785 141.499 154.543L138.098 150.173Z" fill="url(#paint28_linear_107_2331)"/>
<path d="M123.693 158.138C123.657 158.157 123.628 158.145 123.605 158.102C123.582 158.06 123.588 158.029 123.623 158.01C123.766 157.933 123.99 157.821 124.296 157.673C124.616 157.518 124.844 157.404 124.979 157.331C125.156 157.235 125.369 157.111 125.617 156.958C125.851 156.813 126.039 156.703 126.181 156.626C126.209 156.61 126.235 156.624 126.258 156.666C126.281 156.709 126.279 156.738 126.25 156.753C126.065 156.853 125.944 156.942 125.885 157.02C125.823 157.109 125.818 157.203 125.872 157.302C125.938 157.423 126.118 157.587 126.414 157.795L127.917 158.841L130.538 157.422L130.452 156.27C130.433 156.014 130.376 155.798 130.279 155.62C130.141 155.364 129.945 155.213 129.69 155.167C129.429 155.125 129.145 155.187 128.84 155.352C128.804 155.371 128.775 155.36 128.752 155.317C128.729 155.274 128.735 155.244 128.77 155.224C128.898 155.155 129.087 155.062 129.336 154.946C129.614 154.814 129.852 154.694 130.051 154.586C130.243 154.483 130.47 154.351 130.732 154.19C130.966 154.045 131.157 153.933 131.306 153.852C131.335 153.836 131.361 153.85 131.384 153.893C131.407 153.935 131.404 153.964 131.376 153.98C131.177 154.087 131.031 154.217 130.938 154.368C130.849 154.526 130.793 154.745 130.77 155.024C130.75 155.31 130.759 155.709 130.798 156.221L131.236 162.556C131.233 162.585 131.207 162.613 131.158 162.639C131.101 162.67 131.063 162.677 131.044 162.659L125.543 158.858C125.021 158.488 124.627 158.252 124.36 158.148C124.093 158.045 123.87 158.041 123.693 158.138ZM130.561 157.796L128.238 159.053L130.779 160.819L130.561 157.796Z" fill="url(#paint29_linear_107_2331)"/>
<path d="M115.185 169.172C115.17 169.177 115.154 169.157 115.139 169.111C115.123 169.065 115.123 169.039 115.138 169.034C115.443 168.929 115.642 168.724 115.734 168.42C115.828 168.122 115.806 167.771 115.667 167.366L113.653 161.499C113.645 161.476 113.659 161.454 113.694 161.433C113.722 161.415 113.746 161.411 113.767 161.421L121.242 165.696L119.712 161.238C119.573 160.833 119.379 160.541 119.13 160.362C118.88 160.183 118.606 160.144 118.308 160.246C118.293 160.252 118.278 160.231 118.262 160.186C118.246 160.14 118.246 160.114 118.261 160.109C118.475 160.035 118.641 159.983 118.758 159.951L119.381 159.75L120.087 159.495C120.215 159.443 120.4 159.375 120.645 159.291C120.668 159.283 120.687 159.302 120.703 159.348C120.719 159.393 120.715 159.42 120.692 159.428C120.356 159.544 120.133 159.752 120.023 160.055C119.906 160.36 119.917 160.715 120.056 161.12L121.72 165.967C122.067 166.156 122.349 166.268 122.566 166.305C122.778 166.351 122.98 166.342 123.171 166.276C123.186 166.271 123.202 166.291 123.218 166.337C123.233 166.383 123.234 166.409 123.218 166.414L122.733 166.568C122.631 166.594 122.485 166.64 122.294 166.706L121.427 167.016C121.322 167.06 121.194 167.109 121.041 167.161C120.98 167.182 120.929 167.183 120.888 167.163C120.847 167.143 120.771 167.096 120.66 167.023C120.47 166.892 120.338 166.805 120.263 166.762L114.729 163.551L115.999 167.252C116.141 167.665 116.336 167.961 116.586 168.14C116.835 168.319 117.109 168.357 117.407 168.255C117.422 168.25 117.438 168.27 117.453 168.316C117.469 168.362 117.469 168.387 117.454 168.393L116.957 168.55C116.708 168.619 116.499 168.682 116.331 168.74C116.178 168.792 115.967 168.873 115.697 168.983L115.185 169.172Z" fill="url(#paint30_linear_107_2331)"/>
<path d="M102.999 171.565C102.983 171.568 102.971 171.545 102.963 171.498C102.955 171.45 102.959 171.424 102.975 171.422C103.222 171.381 103.499 171.175 103.806 170.804C104.114 170.442 104.369 170.006 104.57 169.497L105.466 167.21L105.022 164.545C104.98 164.298 104.931 164.122 104.872 164.017C104.814 163.913 104.725 163.849 104.607 163.828C104.481 163.808 104.29 163.82 104.036 163.862C104.012 163.866 103.996 163.844 103.988 163.796C103.98 163.749 103.988 163.723 104.012 163.719C104.275 163.675 104.482 163.644 104.635 163.627L105.533 163.489L106.416 163.33C106.574 163.295 106.788 163.255 107.059 163.21C107.075 163.208 107.087 163.23 107.095 163.278C107.103 163.326 107.099 163.351 107.083 163.354C106.828 163.396 106.644 163.447 106.531 163.507C106.418 163.567 106.351 163.656 106.33 163.774C106.302 163.902 106.308 164.085 106.348 164.324L106.751 166.738L108.949 169.16C109.321 169.573 109.621 169.85 109.849 169.992C110.071 170.144 110.25 170.208 110.385 170.185C110.409 170.181 110.425 170.203 110.433 170.251C110.441 170.299 110.433 170.325 110.409 170.329L110.036 170.379C109.859 170.392 109.734 170.405 109.662 170.417C109.383 170.463 108.982 170.538 108.459 170.642L107.672 170.785C107.656 170.788 107.644 170.766 107.636 170.718C107.628 170.67 107.632 170.645 107.648 170.642C107.784 170.619 107.886 170.57 107.955 170.493C108.016 170.417 108.038 170.327 108.021 170.224C107.999 170.096 107.918 169.954 107.778 169.797L105.709 167.489L104.923 169.549C104.768 169.943 104.711 170.268 104.754 170.523C104.786 170.714 104.87 170.848 105.005 170.923C105.134 171.008 105.306 171.033 105.521 170.997C105.545 170.993 105.561 171.015 105.569 171.063C105.577 171.111 105.569 171.136 105.545 171.14L104.909 171.234C104.54 171.279 104.212 171.326 103.925 171.374C103.79 171.396 103.628 171.432 103.439 171.48L102.999 171.565Z" fill="url(#paint31_linear_107_2331)"/>
<path opacity="0.2" d="M75.5 99V106L94 117C101.81 112.314 105.69 110.686 113.5 106V99" stroke="white"/>
<path opacity="0.2" d="M75.5 90V83L94 72C101.81 76.6863 105.69 78.3137 113.5 83V90" stroke="white"/>
<circle opacity="0.2" cx="75.5" cy="94.5" r="2" stroke="white"/>
<circle opacity="0.2" cx="113.5" cy="94.5" r="2" stroke="white"/>
<path d="M85 88V90.8364H94.6471L85 98.1636V101H94.4118L91.8235 98.1636H90.6471L100.529 90.8364V88H85Z" fill="url(#paint32_linear_107_2331)"/>
<path d="M101 98.1636H93L94.1765 99.3455H101V98.1636Z" fill="url(#paint33_linear_107_2331)"/>
<path d="M99.3529 100.055H94.8824L96.0588 101H99.3529V100.055Z" fill="url(#paint34_linear_107_2331)"/>
<defs>
<linearGradient id="paint0_linear_107_2331" x1="31.3711" y1="48.3774" x2="160.226" y2="137.497" gradientUnits="userSpaceOnUse">
<stop stop-color="#D89A26"/>
<stop offset="1" stop-color="#FFCD70"/>
</linearGradient>
<linearGradient id="paint1_linear_107_2331" x1="31.3711" y1="48.3774" x2="160.226" y2="137.497" gradientUnits="userSpaceOnUse">
<stop stop-color="#D89A26"/>
<stop offset="1" stop-color="#FFCD70"/>
</linearGradient>
<linearGradient id="paint2_linear_107_2331" x1="31.3711" y1="48.3774" x2="160.226" y2="137.497" gradientUnits="userSpaceOnUse">
<stop stop-color="#D89A26"/>
<stop offset="1" stop-color="#FFCD70"/>
</linearGradient>
<linearGradient id="paint3_linear_107_2331" x1="31.3711" y1="48.3774" x2="160.226" y2="137.497" gradientUnits="userSpaceOnUse">
<stop stop-color="#D89A26"/>
<stop offset="1" stop-color="#FFCD70"/>
</linearGradient>
<linearGradient id="paint4_linear_107_2331" x1="31.3711" y1="48.3774" x2="160.226" y2="137.497" gradientUnits="userSpaceOnUse">
<stop stop-color="#D89A26"/>
<stop offset="1" stop-color="#FFCD70"/>
</linearGradient>
<linearGradient id="paint5_linear_107_2331" x1="31.3711" y1="48.3774" x2="160.226" y2="137.497" gradientUnits="userSpaceOnUse">
<stop stop-color="#D89A26"/>
<stop offset="1" stop-color="#FFCD70"/>
</linearGradient>
<linearGradient id="paint6_linear_107_2331" x1="31.3711" y1="48.3774" x2="160.226" y2="137.497" gradientUnits="userSpaceOnUse">
<stop stop-color="#D89A26"/>
<stop offset="1" stop-color="#FFCD70"/>
</linearGradient>
<linearGradient id="paint7_linear_107_2331" x1="31.3711" y1="48.3774" x2="160.226" y2="137.497" gradientUnits="userSpaceOnUse">
<stop stop-color="#D89A26"/>
<stop offset="1" stop-color="#FFCD70"/>
</linearGradient>
<linearGradient id="paint8_linear_107_2331" x1="31.3711" y1="48.3774" x2="160.226" y2="137.497" gradientUnits="userSpaceOnUse">
<stop stop-color="#D89A26"/>
<stop offset="1" stop-color="#FFCD70"/>
</linearGradient>
<linearGradient id="paint9_linear_107_2331" x1="31.3711" y1="48.3774" x2="160.226" y2="137.497" gradientUnits="userSpaceOnUse">
<stop stop-color="#D89A26"/>
<stop offset="1" stop-color="#FFCD70"/>
</linearGradient>
<linearGradient id="paint10_linear_107_2331" x1="31.3711" y1="48.3774" x2="160.226" y2="137.497" gradientUnits="userSpaceOnUse">
<stop stop-color="#D89A26"/>
<stop offset="1" stop-color="#FFCD70"/>
</linearGradient>
<linearGradient id="paint11_linear_107_2331" x1="31.3711" y1="48.3774" x2="160.226" y2="137.497" gradientUnits="userSpaceOnUse">
<stop stop-color="#D89A26"/>
<stop offset="1" stop-color="#FFCD70"/>
</linearGradient>
<linearGradient id="paint12_linear_107_2331" x1="31.3711" y1="48.3774" x2="160.226" y2="137.497" gradientUnits="userSpaceOnUse">
<stop stop-color="#D89A26"/>
<stop offset="1" stop-color="#FFCD70"/>
</linearGradient>
<linearGradient id="paint13_linear_107_2331" x1="31.3711" y1="48.3774" x2="160.226" y2="137.497" gradientUnits="userSpaceOnUse">
<stop stop-color="#D89A26"/>
<stop offset="1" stop-color="#FFCD70"/>
</linearGradient>
<linearGradient id="paint14_linear_107_2331" x1="31.3711" y1="48.3774" x2="160.226" y2="137.497" gradientUnits="userSpaceOnUse">
<stop stop-color="#D89A26"/>
<stop offset="1" stop-color="#FFCD70"/>
</linearGradient>
<linearGradient id="paint15_linear_107_2331" x1="31.3711" y1="48.3774" x2="160.226" y2="137.497" gradientUnits="userSpaceOnUse">
<stop stop-color="#D89A26"/>
<stop offset="1" stop-color="#FFCD70"/>
</linearGradient>
<linearGradient id="paint16_linear_107_2331" x1="31.3711" y1="48.3774" x2="160.226" y2="137.497" gradientUnits="userSpaceOnUse">
<stop stop-color="#D89A26"/>
<stop offset="1" stop-color="#FFCD70"/>
</linearGradient>
<linearGradient id="paint17_linear_107_2331" x1="31.3711" y1="48.3774" x2="160.226" y2="137.497" gradientUnits="userSpaceOnUse">
<stop stop-color="#D89A26"/>
<stop offset="1" stop-color="#FFCD70"/>
</linearGradient>
<linearGradient id="paint18_linear_107_2331" x1="31.3711" y1="48.3774" x2="160.226" y2="137.497" gradientUnits="userSpaceOnUse">
<stop stop-color="#D89A26"/>
<stop offset="1" stop-color="#FFCD70"/>
</linearGradient>
<linearGradient id="paint19_linear_107_2331" x1="31.3711" y1="48.3774" x2="160.226" y2="137.497" gradientUnits="userSpaceOnUse">
<stop stop-color="#D89A26"/>
<stop offset="1" stop-color="#FFCD70"/>
</linearGradient>
<linearGradient id="paint20_linear_107_2331" x1="31.3711" y1="48.3774" x2="160.226" y2="137.497" gradientUnits="userSpaceOnUse">
<stop stop-color="#D89A26"/>
<stop offset="1" stop-color="#FFCD70"/>
</linearGradient>
<linearGradient id="paint21_linear_107_2331" x1="31.3711" y1="48.3774" x2="160.226" y2="137.497" gradientUnits="userSpaceOnUse">
<stop stop-color="#D89A26"/>
<stop offset="1" stop-color="#FFCD70"/>
</linearGradient>
<linearGradient id="paint22_linear_107_2331" x1="31.3711" y1="48.3774" x2="160.226" y2="137.497" gradientUnits="userSpaceOnUse">
<stop stop-color="#D89A26"/>
<stop offset="1" stop-color="#FFCD70"/>
</linearGradient>
<linearGradient id="paint23_linear_107_2331" x1="31.3711" y1="48.3774" x2="160.226" y2="137.497" gradientUnits="userSpaceOnUse">
<stop stop-color="#D89A26"/>
<stop offset="1" stop-color="#FFCD70"/>
</linearGradient>
<linearGradient id="paint24_linear_107_2331" x1="31.3711" y1="48.3774" x2="160.226" y2="137.497" gradientUnits="userSpaceOnUse">
<stop stop-color="#D89A26"/>
<stop offset="1" stop-color="#FFCD70"/>
</linearGradient>
<linearGradient id="paint25_linear_107_2331" x1="31.3711" y1="48.3774" x2="160.226" y2="137.497" gradientUnits="userSpaceOnUse">
<stop stop-color="#D89A26"/>
<stop offset="1" stop-color="#FFCD70"/>
</linearGradient>
<linearGradient id="paint26_linear_107_2331" x1="31.3711" y1="48.3774" x2="160.226" y2="137.497" gradientUnits="userSpaceOnUse">
<stop stop-color="#D89A26"/>
<stop offset="1" stop-color="#FFCD70"/>
</linearGradient>
<linearGradient id="paint27_linear_107_2331" x1="31.3711" y1="48.3774" x2="160.226" y2="137.497" gradientUnits="userSpaceOnUse">
<stop stop-color="#D89A26"/>
<stop offset="1" stop-color="#FFCD70"/>
</linearGradient>
<linearGradient id="paint28_linear_107_2331" x1="31.3711" y1="48.3774" x2="160.226" y2="137.497" gradientUnits="userSpaceOnUse">
<stop stop-color="#D89A26"/>
<stop offset="1" stop-color="#FFCD70"/>
</linearGradient>
<linearGradient id="paint29_linear_107_2331" x1="31.3711" y1="48.3774" x2="160.226" y2="137.497" gradientUnits="userSpaceOnUse">
<stop stop-color="#D89A26"/>
<stop offset="1" stop-color="#FFCD70"/>
</linearGradient>
<linearGradient id="paint30_linear_107_2331" x1="31.3711" y1="48.3774" x2="160.226" y2="137.497" gradientUnits="userSpaceOnUse">
<stop stop-color="#D89A26"/>
<stop offset="1" stop-color="#FFCD70"/>
</linearGradient>
<linearGradient id="paint31_linear_107_2331" x1="31.3711" y1="48.3774" x2="160.226" y2="137.497" gradientUnits="userSpaceOnUse">
<stop stop-color="#D89A26"/>
<stop offset="1" stop-color="#FFCD70"/>
</linearGradient>
<linearGradient id="paint32_linear_107_2331" x1="86.5765" y1="90.6981" x2="97.9054" y2="100.342" gradientUnits="userSpaceOnUse">
<stop stop-color="#D89A26"/>
<stop offset="1" stop-color="#FFCD70"/>
</linearGradient>
<linearGradient id="paint33_linear_107_2331" x1="86.5765" y1="90.6981" x2="97.9054" y2="100.342" gradientUnits="userSpaceOnUse">
<stop stop-color="#D89A26"/>
<stop offset="1" stop-color="#FFCD70"/>
</linearGradient>
<linearGradient id="paint34_linear_107_2331" x1="86.5765" y1="90.6981" x2="97.9054" y2="100.342" gradientUnits="userSpaceOnUse">
<stop stop-color="#D89A26"/>
<stop offset="1" stop-color="#FFCD70"/>
</linearGradient>
</defs>
</svg>
