<svg width="156" height="156" viewBox="0 0 156 156" fill="none" xmlns="http://www.w3.org/2000/svg">
<path d="M71.9613 156C71.9451 156 71.937 155.976 71.937 155.927C71.937 155.879 71.9451 155.855 71.9613 155.855C72.2601 155.855 72.5428 155.725 72.8094 155.467C73.0679 155.216 73.2819 154.869 73.4516 154.425L75.6931 148.439C75.7012 148.407 75.7456 148.391 75.8264 148.391C75.9071 148.391 75.9516 148.407 75.9596 148.439L77.5105 151.723L78.7343 148.439C78.7424 148.407 78.7868 148.391 78.8676 148.391C78.9483 148.391 78.9928 148.407 79.0009 148.439L82.0905 154.994C82.2117 155.253 82.3127 155.439 82.3934 155.552C82.4661 155.665 82.5509 155.742 82.6479 155.782C82.7367 155.83 82.8579 155.855 83.0114 155.855C83.0356 155.855 83.0477 155.879 83.0477 155.927C83.0477 155.976 83.0356 156 83.0114 156C82.8902 156 82.8054 155.996 82.7569 155.988C82.5954 155.972 82.3853 155.964 82.1269 155.964C81.5857 155.964 81.1293 155.972 80.7577 155.988C80.6527 155.996 80.5235 156 80.37 156C80.3458 156 80.3336 155.976 80.3336 155.927C80.3336 155.879 80.3458 155.855 80.37 155.855C80.5719 155.855 80.7173 155.834 80.8062 155.794C80.887 155.754 80.9274 155.681 80.9274 155.576C80.9274 155.439 80.8345 155.172 80.6487 154.776L78.4677 150.148L77.7044 152.147L79.0493 154.994C79.1866 155.285 79.3159 155.499 79.437 155.637C79.5582 155.782 79.6874 155.855 79.8248 155.855C79.849 155.855 79.8611 155.879 79.8611 155.927C79.8611 155.976 79.849 156 79.8248 156C79.744 156 79.6511 155.992 79.5461 155.976C79.433 155.968 79.2755 155.964 79.0735 155.964C78.6131 155.964 78.2294 155.972 77.9225 155.988C77.8417 155.996 77.7367 156 77.6075 156C77.5832 156 77.5711 155.976 77.5711 155.927C77.5711 155.879 77.5832 155.855 77.6075 155.855C77.7206 155.855 77.8054 155.838 77.8619 155.806C77.9104 155.782 77.9346 155.733 77.9346 155.661C77.9346 155.523 77.8256 155.229 77.6075 154.776L77.0744 153.649L76.7714 154.461C76.5937 154.922 76.5049 155.269 76.5049 155.503C76.5049 155.737 76.6059 155.855 76.8078 155.855C76.832 155.855 76.8441 155.879 76.8441 155.927C76.8441 155.976 76.832 156 76.8078 156C76.7432 156 76.6745 155.992 76.6018 155.976C76.521 155.968 76.3272 155.964 76.0202 155.964C75.8829 155.964 75.7173 155.972 75.5235 155.988L75.0752 156C75.059 156 75.0509 155.976 75.0509 155.927C75.0509 155.879 75.059 155.855 75.0752 155.855C75.6164 155.855 76.0647 155.378 76.4201 154.425L76.8684 153.225L75.4144 150.16L73.8514 154.34C73.7545 154.599 73.706 154.833 73.706 155.043C73.706 155.293 73.7706 155.491 73.8999 155.637C74.021 155.782 74.1866 155.855 74.3966 155.855C74.4209 155.855 74.433 155.879 74.433 155.927C74.433 155.976 74.4209 156 74.3966 156L73.8393 155.988C73.5485 155.972 73.2819 155.964 73.0396 155.964C72.8781 155.964 72.6923 155.972 72.4823 155.988L71.9613 156Z" fill="url(#paint0_linear_164_165)"/>
<path d="M63.0178 148.866C63.0151 148.882 62.9978 148.887 62.966 148.882C62.9421 148.878 62.9235 148.866 62.9102 148.848C62.8876 148.836 62.877 148.826 62.8783 148.818C63.0617 148.21 63.1959 147.651 63.281 147.141C63.2917 147.077 63.3116 147.031 63.3408 147.003C63.3687 146.983 63.4185 146.979 63.4902 146.991L68.7726 147.873C68.7965 147.877 68.8045 147.903 68.7965 147.95C68.7885 147.998 68.7726 148.02 68.7487 148.016C68.4937 147.974 68.3071 147.963 68.1889 147.984C68.0628 148.004 67.9705 148.066 67.912 148.171C67.8522 148.284 67.8024 148.46 67.7625 148.699L66.8392 154.233C66.7993 154.472 66.79 154.65 66.8112 154.768C66.8324 154.887 66.8994 154.976 67.0123 155.035C67.1238 155.103 67.3031 155.158 67.5501 155.199C67.574 155.203 67.582 155.229 67.574 155.277C67.566 155.324 67.5501 155.346 67.5262 155.342L62.4589 154.497C62.3792 154.483 62.3454 154.441 62.3573 154.369L62.5987 152.776C62.6013 152.76 62.6272 152.752 62.6764 152.752C62.7175 152.75 62.7401 152.762 62.7441 152.788C62.7944 153.271 62.9524 153.65 63.2179 153.923C63.4835 154.197 63.8632 154.375 64.3572 154.457L64.7157 154.517C64.9548 154.557 65.1387 154.534 65.2675 154.449C65.3963 154.364 65.4787 154.214 65.5146 153.999L65.9214 151.561L64.9295 151.396C64.4674 151.319 64.0995 151.339 63.826 151.457C63.5524 151.575 63.3917 151.778 63.3438 152.065C63.3398 152.089 63.3179 152.097 63.2781 152.091C63.2303 152.083 63.2083 152.067 63.2123 152.043L63.4038 150.969L63.4875 150.393C63.5168 150.12 63.5447 149.903 63.5713 149.744C63.574 149.728 63.5992 149.724 63.647 149.732C63.6948 149.74 63.7174 149.752 63.7147 149.768C63.6602 150.095 63.7452 150.371 63.9695 150.597C64.1846 150.829 64.5272 150.985 64.9973 151.063L65.9773 151.227L66.428 148.526C66.4665 148.295 66.4513 148.116 66.3823 147.99C66.3132 147.864 66.1831 147.785 65.9919 147.753L65.5975 147.687C64.9761 147.583 64.4568 147.628 64.0398 147.82C63.6228 148.012 63.2821 148.361 63.0178 148.866Z" fill="url(#paint1_linear_164_165)"/>
<path d="M55.0523 145.696C55.1205 145.498 55.1551 145.347 55.156 145.245C55.1543 145.151 55.1166 145.074 55.0431 145.014C54.9619 144.952 54.822 144.887 54.6233 144.819L54.2337 144.685C53.6378 144.481 53.0683 144.46 52.5253 144.624C51.9797 144.795 51.5412 145.127 51.2098 145.62C51.2046 145.635 51.1867 145.637 51.1561 145.627C51.1408 145.622 51.1282 145.609 51.1181 145.588C51.0978 145.573 51.089 145.561 51.0916 145.554C51.42 144.821 51.6708 144.202 51.8439 143.698C51.8649 143.637 51.8959 143.596 51.937 143.576C51.9677 143.561 52.0137 143.564 52.0748 143.585L57.4839 145.442C57.4991 145.447 57.4989 145.473 57.4832 145.519C57.4674 145.565 57.4519 145.585 57.4367 145.58C57.1922 145.496 57.0099 145.455 56.8898 145.456C56.7621 145.455 56.6608 145.501 56.5859 145.595C56.5007 145.694 56.4188 145.858 56.3401 146.087L54.5186 151.393C54.4399 151.622 54.4051 151.798 54.4142 151.921C54.4157 152.041 54.4672 152.14 54.5687 152.217C54.6675 152.303 54.8354 152.386 55.0722 152.467C55.0875 152.472 55.0873 152.498 55.0715 152.544C55.0558 152.59 55.0403 152.61 55.025 152.605L54.4445 152.393C54.0983 152.257 53.8106 152.149 53.5814 152.071C53.3522 151.992 53.0593 151.9 52.7026 151.795L52.1142 151.605C52.0913 151.598 52.0877 151.571 52.1034 151.525C52.1192 151.479 52.1385 151.46 52.1614 151.468C52.3983 151.549 52.5818 151.587 52.7122 151.58C52.8399 151.581 52.9425 151.531 53.0201 151.43C53.095 151.336 53.1718 151.174 53.2505 150.945L55.0523 145.696Z" fill="url(#paint2_linear_164_165)"/>
<path d="M39.4874 146.036C39.1535 145.855 38.8315 145.644 38.5212 145.403C38.2 145.165 37.9595 144.948 37.7996 144.751C37.7472 144.695 37.7235 144.645 37.7285 144.602C37.7226 144.562 37.7372 144.501 37.7724 144.419L38.4355 142.863C38.447 142.842 38.4725 142.837 38.5118 142.849C38.5512 142.861 38.5703 142.885 38.5691 142.922C38.4528 143.612 38.4967 144.21 38.7007 144.715C38.901 145.227 39.2604 145.624 39.779 145.905C40.2621 146.166 40.7666 146.269 41.2924 146.214C41.8073 146.162 42.3056 145.954 42.7873 145.59C43.2618 145.222 43.674 144.715 44.0239 144.069C44.3775 143.415 44.5788 142.78 44.6277 142.164C44.6657 141.55 44.5623 141.003 44.3177 140.522C44.0621 140.044 43.6786 139.666 43.1671 139.389C42.6769 139.124 42.1938 139.033 41.7176 139.115C41.2377 139.204 40.6832 139.473 40.0542 139.923C40.0355 139.94 40.0104 139.936 39.9787 139.91C39.947 139.883 39.937 139.859 39.9485 139.838L40.8234 138.603C40.8837 138.526 40.9287 138.476 40.9583 138.456C40.984 138.442 41.0366 138.438 41.1159 138.445C41.8963 138.564 42.6204 138.804 43.2882 139.166C44.0483 139.577 44.6534 140.088 45.1035 140.699C45.5426 141.313 45.7923 141.972 45.8527 142.675C45.913 143.378 45.7644 144.06 45.4069 144.721C45.0416 145.396 44.5427 145.902 43.9102 146.239C43.2666 146.58 42.5586 146.734 41.7862 146.702C41.0067 146.665 40.2404 146.444 39.4874 146.036Z" fill="url(#paint3_linear_164_165)"/>
<path d="M34.6253 133.355C35.2182 133.816 35.6406 134.365 35.8926 135.001C36.1332 135.639 36.1974 136.293 36.0853 136.963C35.9618 137.635 35.6817 138.251 35.2451 138.812C34.7341 139.468 34.1318 139.9 33.4381 140.108C32.7395 140.321 32.0403 140.345 31.3404 140.179C30.6341 140.008 30.0101 139.712 29.4683 139.29C28.8627 138.819 28.4421 138.261 28.2064 137.617C27.9657 136.979 27.9054 136.334 28.0253 135.68C28.1389 135.021 28.3991 134.43 28.806 133.907C29.2574 133.327 29.8247 132.914 30.5077 132.668C31.1908 132.422 31.8996 132.359 32.6342 132.481C33.3624 132.597 34.0262 132.888 34.6253 133.355ZM34.1238 133.348C33.7668 133.07 33.3687 132.924 32.9295 132.91C32.4789 132.897 32.0201 133.026 31.5532 133.297C31.0813 133.575 30.6295 133.991 30.1978 134.546C29.7414 135.132 29.4238 135.724 29.2451 136.322C29.0614 136.926 29.0367 137.491 29.1712 138.015C29.3056 138.539 29.5991 138.977 30.0517 139.33C30.6317 139.781 31.2491 139.909 31.9038 139.712C32.5535 139.522 33.1835 139.034 33.7937 138.25C34.275 137.632 34.6142 137.005 34.8113 136.371C34.9972 135.737 35.0342 135.157 34.9225 134.63C34.8043 134.098 34.5381 133.671 34.1238 133.348Z" fill="url(#paint4_linear_164_165)"/>
<path d="M22.6919 122.194C22.6809 122.182 22.6933 122.159 22.729 122.126C22.7646 122.094 22.7879 122.083 22.7989 122.095C22.9849 122.297 23.1296 122.46 23.2331 122.585L23.8314 123.252L24.4558 123.913C24.5657 124.02 24.7109 124.172 24.8914 124.368C24.9078 124.386 24.8982 124.411 24.8626 124.444C24.8269 124.477 24.8009 124.485 24.7845 124.467C24.5547 124.217 24.3691 124.075 24.2276 124.041C24.0861 124.006 23.9202 124.077 23.7301 124.252L23.5867 124.4L20.1131 127.944L26.1092 125.816C26.1439 125.806 26.1777 125.819 26.2105 125.855C26.2433 125.89 26.2533 125.925 26.2405 125.959L24.0289 132.161L27.3126 129.27C27.639 128.981 27.8341 128.686 27.898 128.386C27.9504 128.085 27.8645 127.813 27.6402 127.569C27.6238 127.551 27.6334 127.526 27.6691 127.493C27.7047 127.46 27.7308 127.453 27.7472 127.47C27.8949 127.631 28.0068 127.758 28.0829 127.853L28.5253 128.352L29.0512 128.905C29.1447 128.995 29.2653 129.12 29.413 129.28C29.4294 129.298 29.4198 129.323 29.3842 129.356C29.3485 129.389 29.3225 129.396 29.3061 129.379C29.0818 129.135 28.8118 129.027 28.4963 129.053C28.1808 129.08 27.8628 129.236 27.5424 129.52L23.778 132.837L23.7773 132.854C23.6668 133.176 23.6212 133.448 23.6406 133.672C23.6544 133.89 23.7379 134.082 23.8911 134.248C23.9075 134.266 23.8979 134.291 23.8623 134.324C23.8266 134.357 23.8006 134.364 23.7842 134.347L23.4074 133.919C23.3367 133.831 23.2412 133.721 23.1209 133.59L22.677 133.126C22.6219 133.078 22.556 133.012 22.4794 132.929C22.4083 132.852 22.3803 132.768 22.3955 132.677C22.4107 132.586 22.4673 132.391 22.5654 132.092L24.4224 126.793L18.9766 128.677C18.8606 128.718 18.7713 128.734 18.7088 128.726C18.6348 128.717 18.5678 128.68 18.5076 128.615C18.4584 128.561 18.4066 128.499 18.3524 128.428C18.2927 128.351 18.2218 128.268 18.1397 128.179L17.6466 127.661C17.5641 127.584 17.4517 127.468 17.3095 127.313C17.2931 127.295 17.3027 127.27 17.3384 127.237C17.374 127.204 17.4 127.197 17.4165 127.215C17.6736 127.494 17.916 127.644 18.1439 127.665C18.3717 127.686 18.5989 127.581 18.8257 127.35L22.6758 123.41C22.8491 123.229 22.9637 123.085 23.0195 122.979C23.0699 122.867 23.0717 122.755 23.0248 122.645C22.9724 122.528 22.8615 122.378 22.6919 122.194Z" fill="url(#paint5_linear_164_165)"/>
<path d="M15.6937 115.024C15.6801 115.033 15.6645 115.024 15.6469 114.997C15.6336 114.976 15.6293 114.955 15.634 114.933C15.6275 114.908 15.6277 114.893 15.6344 114.889C16.2061 114.612 16.7083 114.332 17.1411 114.049C17.1952 114.014 17.2424 113.998 17.2827 114C17.3162 114.007 17.3528 114.041 17.3926 114.102L20.3217 118.586C20.335 118.606 20.3213 118.629 20.2808 118.656C20.2402 118.682 20.2133 118.685 20.2 118.665C20.0587 118.449 19.9401 118.304 19.8445 118.232C19.7444 118.152 19.636 118.127 19.5192 118.155C19.3957 118.187 19.2325 118.27 19.0296 118.402L14.3332 121.47C14.1304 121.603 13.9926 121.717 13.92 121.813C13.8475 121.908 13.8274 122.018 13.8599 122.142C13.8856 122.27 13.9669 122.438 14.1038 122.648C14.1171 122.668 14.1034 122.692 14.0629 122.718C14.0223 122.745 13.9954 122.748 13.9821 122.727L11.1723 118.427C11.1281 118.359 11.1364 118.305 11.1973 118.266L12.5331 117.364C12.5466 117.355 12.57 117.369 12.6033 117.405C12.6322 117.434 12.6386 117.459 12.6228 117.479C12.3013 117.843 12.1298 118.216 12.1083 118.597C12.0868 118.977 12.2131 119.377 12.487 119.797L12.6858 120.101C12.8183 120.304 12.9595 120.424 13.1093 120.461C13.259 120.498 13.4252 120.457 13.6078 120.338L15.677 118.986L15.127 118.144C14.8707 117.752 14.6065 117.495 14.3343 117.374C14.0621 117.253 13.8043 117.271 13.5608 117.431C13.5406 117.444 13.5194 117.433 13.4973 117.4C13.4708 117.359 13.4677 117.332 13.4879 117.319L14.4075 116.733L14.8877 116.404C15.1088 116.241 15.287 116.115 15.4222 116.026C15.4357 116.017 15.4558 116.033 15.4823 116.074C15.5088 116.114 15.5153 116.139 15.5017 116.148C15.2245 116.329 15.0788 116.579 15.0646 116.897C15.0393 117.212 15.157 117.57 15.4176 117.969L15.961 118.8L18.2534 117.303C18.4496 117.175 18.5706 117.042 18.6167 116.906C18.6628 116.77 18.6328 116.621 18.5268 116.458L18.3081 116.124C17.9635 115.596 17.5792 115.244 17.1551 115.068C16.7311 114.891 16.2439 114.877 15.6937 115.024Z" fill="url(#paint6_linear_164_165)"/>
<path d="M2.7911 97.8786C3.02707 98.8105 3.80346 99.3263 5.12028 99.4261C5.14576 99.428 5.16345 99.4485 5.17337 99.4877C5.17545 99.5288 5.16475 99.5523 5.14126 99.5583C4.82011 99.6063 4.40792 99.6732 3.90469 99.7589C3.39363 99.8467 3.01282 99.9223 2.76224 99.9858C2.72309 99.9957 2.69856 99.9811 2.68864 99.9419C2.67675 99.8949 2.69037 99.8665 2.72953 99.8566C2.90179 99.8129 2.93142 99.5679 2.81839 99.1216C2.67135 98.4422 2.48381 97.6523 2.25577 96.7518C2.13878 96.2898 2.00702 95.8024 1.86048 95.2895L1.64648 94.4938C1.57113 94.1962 1.49702 93.9858 1.42416 93.8626C1.34932 93.7316 1.24821 93.6614 1.12084 93.652C1.08753 93.6521 1.06592 93.6326 1.05601 93.5934C1.04411 93.5464 1.05382 93.519 1.08515 93.511C1.32601 93.475 1.70881 93.4073 2.23354 93.3077C2.7563 93.2003 3.17428 93.107 3.4875 93.0277C3.51099 93.0217 3.52769 93.0383 3.53761 93.0775C3.54752 93.1166 3.54172 93.1431 3.52022 93.1569C2.94702 93.427 2.55229 93.7603 2.33604 94.1567C2.11195 94.5551 2.0594 94.9892 2.17837 95.459C2.23588 95.6861 2.32544 95.8259 2.44707 95.8784C2.55888 95.9251 2.75182 95.9137 3.02588 95.8443L8.44059 94.4731C8.68334 94.4117 8.85357 94.3435 8.9513 94.2688C9.04903 94.1941 9.10061 94.0852 9.10606 93.9421C9.1115 93.7991 9.07753 93.5827 9.00417 93.293C8.99822 93.2695 9.01873 93.2518 9.06572 93.2399C9.1127 93.228 9.13916 93.2338 9.14511 93.2573C9.2165 93.5392 9.2691 93.7634 9.30291 93.9298L9.53804 94.9077L9.79071 95.8561C9.84018 96.0185 9.9016 96.2446 9.97497 96.5344C9.98092 96.5579 9.9604 96.5755 9.91342 96.5874C9.86643 96.5993 9.83997 96.5935 9.83402 96.5701C9.76264 96.2882 9.69051 96.0856 9.61765 95.9624C9.54281 95.8314 9.44462 95.7562 9.3231 95.737C9.19176 95.7119 9.00864 95.7292 8.77373 95.7886L3.33552 97.1658C3.06929 97.2332 2.89811 97.3141 2.82199 97.4083C2.74587 97.5026 2.73558 97.6594 2.7911 97.8786Z" fill="url(#paint7_linear_164_165)"/>
<path d="M7.87555 83.6295C7.93758 84.3782 7.81987 85.0606 7.52241 85.677C7.21624 86.2859 6.77865 86.7761 6.20963 87.1475C5.6319 87.5114 4.98883 87.7228 4.28044 87.7815C3.45129 87.8502 2.72555 87.6996 2.10321 87.3297C1.47283 86.9604 0.981698 86.4621 0.629819 85.8348C0.277273 85.1993 0.0726506 84.5395 0.0159522 83.8552C-0.0474166 83.0905 0.0780101 82.4033 0.392232 81.7937C0.698404 81.1847 1.13264 80.7029 1.69494 80.3483C2.25657 79.9857 2.86744 79.777 3.52754 79.7223C4.26009 79.6616 4.94827 79.7991 5.59208 80.1348C6.2359 80.4705 6.76192 80.9497 7.17015 81.5724C7.57771 82.1871 7.81284 82.8728 7.87555 83.6295ZM7.54065 83.256C7.5033 82.8052 7.34115 82.4134 7.0542 82.0805C6.75853 81.7403 6.35281 81.4902 5.83704 81.3303C5.31321 81.1711 4.70113 81.1205 4.00078 81.1785C3.26018 81.2399 2.60942 81.4073 2.0485 81.6807C1.47953 81.9548 1.0477 82.3189 0.753003 82.7729C0.458307 83.2269 0.334639 83.7397 0.381999 84.3112C0.442699 85.0438 0.767116 85.5843 1.35525 85.9327C1.93533 86.2818 2.72045 86.4153 3.71059 86.3333C4.49144 86.2686 5.18212 86.0938 5.78262 85.809C6.37441 85.5168 6.82637 85.1511 7.13849 84.7118C7.44996 84.2645 7.58401 83.7793 7.54065 83.256Z" fill="url(#paint8_linear_164_165)"/>
<path d="M9.84346 60.5773C9.65905 61.3055 9.32611 61.9128 8.84465 62.3992C8.35735 62.8757 7.78431 63.1972 7.12554 63.3637C6.46093 63.5204 5.78409 63.5114 5.09501 63.3369C4.28848 63.1327 3.65096 62.7546 3.18246 62.2027C2.70612 61.6487 2.4034 61.018 2.27429 60.3103C2.14717 59.5949 2.16788 58.9043 2.33643 58.2387C2.5248 57.4948 2.86656 56.8856 3.3617 56.411C3.84901 55.9345 4.41615 55.6198 5.06312 55.467C5.71207 55.3064 6.35759 55.3074 6.99968 55.47C7.71225 55.6504 8.31849 56.0039 8.81842 56.5305C9.31835 57.0571 9.66028 57.6811 9.8442 58.4026C10.0301 59.1163 10.0299 59.8412 9.84346 60.5773ZM9.64798 60.1153C9.75902 59.6768 9.73288 59.2535 9.56956 58.8455C9.40038 58.4277 9.09784 58.0595 8.66193 57.7408C8.21819 57.4201 7.6557 57.1735 6.97445 57.001C6.25406 56.8185 5.58421 56.7655 4.9649 56.842C4.33776 56.9165 3.81112 57.1206 3.38497 57.4544C2.95883 57.7881 2.67537 58.2329 2.53458 58.7889C2.35414 59.5014 2.48548 60.118 2.92861 60.6385C3.36392 61.157 4.06314 61.5383 5.02627 61.7822C5.78582 61.9745 6.49582 62.0335 7.15626 61.9591C7.81086 61.8749 8.35708 61.6757 8.79491 61.3616C9.23473 61.0397 9.51909 60.6243 9.64798 60.1153Z" fill="url(#paint9_linear_164_165)"/>
<path d="M8.98971 44.8559C8.59026 44.6807 8.23532 44.6352 7.92489 44.7196C7.6177 44.7965 7.39272 44.9977 7.24995 45.3232C7.24346 45.338 7.21803 45.3357 7.17365 45.3162C7.12926 45.2967 7.11032 45.2796 7.11681 45.2648L7.36152 44.7371C7.49961 44.4625 7.60598 44.2401 7.6806 44.0699C7.74225 43.9294 7.82409 43.7227 7.9261 43.4499L8.13889 42.9347C8.14538 42.9199 8.17082 42.9222 8.2152 42.9417C8.25958 42.9611 8.27853 42.9783 8.27204 42.9931C8.1455 43.2816 8.16119 43.5575 8.31912 43.8208C8.47705 44.0841 8.75574 44.3034 9.15519 44.4786L12.2398 45.8317C12.7576 46.0588 13.1623 46.373 13.4537 46.7743C13.7452 47.1756 13.9057 47.6341 13.9353 48.1499C13.9607 48.655 13.8534 49.1812 13.6133 49.7286C13.3731 50.276 13.0571 50.7151 12.665 51.0459C12.2729 51.3767 11.8273 51.5782 11.3282 51.6503C10.8249 51.7118 10.307 51.6257 9.77436 51.3921L6.19041 49.82C5.9685 49.7227 5.79602 49.6735 5.67299 49.6725C5.55321 49.664 5.45049 49.7072 5.36483 49.8019C5.27502 49.886 5.17982 50.0427 5.07924 50.272C5.0695 50.2942 5.04244 50.2956 4.99806 50.2761C4.95368 50.2566 4.93635 50.2358 4.94609 50.2136L5.21514 49.6304C5.37919 49.2966 5.50502 49.0298 5.59263 48.8301C5.68997 48.6082 5.80587 48.3239 5.94033 47.9771L6.17746 47.4063C6.18719 47.3841 6.21425 47.3828 6.25864 47.4022C6.30302 47.4217 6.32034 47.4425 6.31061 47.4647C6.21002 47.694 6.15759 47.8739 6.1533 48.0044C6.15226 48.1274 6.19748 48.2354 6.28897 48.3285C6.37631 48.4109 6.53093 48.5008 6.75285 48.5981L9.92626 49.9901C10.8065 50.3762 11.5337 50.4879 12.1079 50.3252C12.682 50.1625 13.1086 49.7631 13.3877 49.1269C13.657 48.5129 13.6829 47.951 13.4656 47.4411C13.2408 46.9279 12.7808 46.5188 12.0854 46.2138L8.98971 44.8559Z" fill="url(#paint10_linear_164_165)"/>
<path d="M21.2289 35.7602C21.2377 35.7466 21.2624 35.7531 21.303 35.7796C21.3436 35.8061 21.3594 35.8262 21.3506 35.8397L20.171 37.6452C20.0738 37.794 19.6255 37.8967 18.8262 37.9535C18.0202 38.0058 16.9459 38.0034 15.6034 37.9464C15.5748 38.0049 15.5273 38.0849 15.4611 38.1864C15.2888 38.4501 15.1639 38.6338 15.0864 38.7376L17.3281 40.2022C17.5378 40.3392 17.701 40.4217 17.8177 40.4497C17.9345 40.4778 18.0407 40.4555 18.1364 40.3829C18.2364 40.3036 18.3572 40.1557 18.4985 39.9393C18.5074 39.9258 18.5321 39.9323 18.5727 39.9588C18.6132 39.9853 18.6291 40.0053 18.6203 40.0188C18.4745 40.242 18.3562 40.4156 18.2655 40.5396L17.7517 41.3039L17.2781 42.051C17.1965 42.1907 17.0806 42.3755 16.9304 42.6054C16.9171 42.6257 16.8902 42.6226 16.8496 42.5961C16.8091 42.5696 16.7954 42.5462 16.8087 42.5259C16.95 42.3095 17.0347 42.1429 17.0628 42.0262C17.0952 41.9026 17.0752 41.793 17.0026 41.6974C16.9277 41.5905 16.7888 41.4708 16.5859 41.3383L11.8895 38.2699C11.6867 38.1374 11.5268 38.0571 11.4101 38.0291C11.2933 38.001 11.1849 38.0267 11.0848 38.106C10.978 38.1809 10.8561 38.3232 10.7191 38.5329C10.7103 38.5464 10.6856 38.5399 10.645 38.5134C10.6044 38.4869 10.5886 38.4669 10.5974 38.4533L10.9588 37.9224C11.1755 37.6201 11.3435 37.3777 11.4628 37.1951C11.613 36.9652 11.7597 36.7185 11.9029 36.4551C11.9536 36.3627 12.0175 36.2501 12.0947 36.1172C12.1763 35.9775 12.2701 35.8266 12.3761 35.6643C12.7782 35.0489 13.2046 34.6473 13.6554 34.4594C14.0995 34.267 14.5244 34.3034 14.9301 34.5685C15.302 34.8115 15.5739 35.1338 15.7456 35.5355C15.9106 35.9328 15.974 36.3601 15.9356 36.8175C17.1006 36.8067 18.0322 36.7689 18.7306 36.7042C19.429 36.6394 19.9758 36.5335 20.371 36.3865C20.7662 36.2394 21.0522 36.0307 21.2289 35.7602ZM14.8024 38.5521C14.9355 38.4074 15.0772 38.2202 15.2274 37.9902C15.4836 37.598 15.5588 37.2467 15.4528 36.9363C15.3445 36.6147 15.047 36.2948 14.5601 35.9767C14.0056 35.6144 13.5705 35.4459 13.2548 35.4713C12.9392 35.4966 12.6819 35.6614 12.4831 35.9657C12.3064 36.2362 12.2312 36.4621 12.2575 36.6433C12.2838 36.8246 12.4154 36.9925 12.652 37.1471L14.8024 38.5521Z" fill="url(#paint11_linear_164_165)"/>
<path d="M31.2441 15.8804C31.2384 15.8336 31.2299 15.8095 31.2185 15.8081C31.2086 15.7954 31.1813 15.8063 31.1367 15.8411C30.41 16.4067 29.8778 16.867 29.54 17.2221C29.2036 17.5658 28.9838 17.9211 28.8804 18.2882C28.7722 18.6488 28.7727 19.0834 28.882 19.5921C28.8805 19.6034 28.8703 19.6165 28.8512 19.6314C28.7938 19.6761 28.7584 19.6832 28.7449 19.6527L27.8324 17.6913C27.8275 17.6849 27.8378 17.6718 27.8632 17.652C27.927 17.6023 27.9599 17.5921 27.9621 17.6211C27.9706 17.6452 27.9872 17.6732 28.012 17.705C28.0716 17.7815 28.1463 17.8052 28.2363 17.7762C28.3326 17.7421 28.4923 17.6383 28.7155 17.4646L32.2054 14.7483C32.2373 14.7235 32.272 14.722 32.3095 14.744C32.3535 14.761 32.3733 14.7865 32.3691 14.8205L33.4144 22.989C33.4137 23.0407 33.4215 23.0705 33.4378 23.0783C33.4491 23.0797 33.4739 23.0655 33.5122 23.0357L35.4436 21.5324C35.673 21.3538 35.8515 21.1228 35.9789 20.8394C36.1014 20.5496 36.1622 20.2463 36.1614 19.9296C36.1606 19.6129 36.0925 19.3282 35.9571 19.0753C35.9486 19.0512 35.9602 19.0268 35.9921 19.002C36.024 18.9772 36.0474 18.9743 36.0622 18.9934L37.0075 20.4841C37.0224 20.5032 37.0302 20.5329 37.0309 20.5733C37.033 20.6024 37.0213 20.6268 36.9958 20.6467C36.0361 21.3732 34.5045 22.555 32.401 24.1923C32.3755 24.2122 32.3465 24.2143 32.3139 24.1987C32.2763 24.1768 32.2572 24.1456 32.2564 24.1052L31.2441 15.8804Z" fill="url(#paint12_linear_164_165)"/>
<path d="M40.8349 10.7776C40.9733 11.0334 41.1603 11.2261 41.3958 11.3558C41.6384 11.4817 41.896 11.5673 42.1686 11.6127C42.4411 11.6581 42.7984 11.6989 43.2405 11.7352C43.7188 11.7703 44.1106 11.8154 44.416 11.8706C44.7214 11.9257 45.0159 12.0373 45.2997 12.2052C45.5796 12.366 45.806 12.6062 45.979 12.9259C46.1789 13.2953 46.2582 13.6795 46.2169 14.0784C46.1718 14.4702 46.0159 14.8439 45.7491 15.1996C45.4856 15.5442 45.1371 15.8338 44.7038 16.0683C44.3841 16.2413 44.0272 16.3794 43.6329 16.4825C43.2348 16.5786 42.9466 16.606 42.7682 16.5648C42.7173 16.5556 42.6754 16.5461 42.6425 16.5363C42.613 16.5156 42.5828 16.4768 42.552 16.42L41.6031 14.743L41.5974 14.7323C41.582 14.7039 41.5921 14.6801 41.6276 14.6608C41.6593 14.6345 41.6863 14.6336 41.7088 14.6582C42.1565 14.9762 42.5315 15.2279 42.8339 15.4133C43.1433 15.5948 43.4746 15.7232 43.8276 15.7985C44.1877 15.87 44.5241 15.8212 44.8367 15.652C45.1208 15.4982 45.3149 15.2968 45.4189 15.0476C45.519 14.7914 45.4691 14.4785 45.2692 14.1091C45.1 13.7965 44.881 13.5615 44.612 13.4039C44.3502 13.2425 44.0756 13.134 43.7883 13.0782C43.5009 13.0225 43.1217 12.9751 42.6506 12.9362C42.1904 12.9005 41.8221 12.8564 41.5457 12.8039C41.2765 12.7476 41.0147 12.6458 40.7606 12.4986C40.5064 12.3515 40.2986 12.1287 40.1371 11.8303C39.9334 11.4538 39.8689 11.08 39.9436 10.7089C40.0216 10.3269 40.1984 9.98322 40.474 9.67791C40.7458 9.36549 41.0699 9.10741 41.4465 8.90365C41.6951 8.76909 41.9607 8.65747 42.2434 8.5688C42.5222 8.47302 42.7571 8.41481 42.948 8.39416C43.0273 8.38798 43.0872 8.39688 43.1277 8.42087C43.1644 8.43775 43.1962 8.47106 43.2231 8.52078L44.0708 10.0872C44.0824 10.1086 44.0742 10.1359 44.0464 10.1694C44.0147 10.1957 43.9896 10.2001 43.9709 10.1826L43.7761 10.0263C43.3563 9.67486 42.9411 9.40821 42.5304 9.22634C42.1268 9.04063 41.7119 9.06311 41.2856 9.29379C41.0015 9.44757 40.8112 9.65614 40.715 9.91949C40.6258 10.179 40.6658 10.465 40.8349 10.7776Z" fill="url(#paint13_linear_164_165)"/>
<path d="M51.9153 4.75752C51.0062 5.06963 50.5562 5.88598 50.5655 7.20657C50.5657 7.23211 50.5467 7.25144 50.5085 7.26455C50.4677 7.27003 50.4434 7.26131 50.4355 7.23839C50.3611 6.9223 50.2605 6.51703 50.1334 6.0226C50.0038 5.52052 49.897 5.14725 49.813 4.90277C49.7999 4.86457 49.8125 4.83891 49.8507 4.8258C49.8965 4.81006 49.926 4.82129 49.9391 4.85949C49.9968 5.02757 50.2434 5.03686 50.6789 4.88736C51.3438 4.68472 52.1155 4.43259 52.9941 4.13096C53.4448 3.97622 53.9197 3.80465 54.4187 3.61626L55.194 3.33728C55.4844 3.23761 55.6879 3.14638 55.8047 3.06359C55.9291 2.97818 55.9907 2.87162 55.9896 2.74391C55.9867 2.71072 56.0044 2.68758 56.0426 2.67446C56.0884 2.65872 56.1166 2.66614 56.1271 2.6967C56.1828 2.93377 56.282 3.30966 56.4245 3.8244C56.5747 4.3365 56.7023 4.74536 56.8072 5.05096C56.815 5.07388 56.7999 5.0919 56.7617 5.10501C56.7235 5.11812 56.6966 5.11453 56.6811 5.09424C56.3646 4.5453 55.9998 4.17944 55.5869 3.99665C55.1714 3.80623 54.7345 3.7897 54.2761 3.94707C54.0545 4.02313 53.9226 4.12393 53.8803 4.24948C53.843 4.36477 53.8702 4.55611 53.962 4.82351L55.7757 10.1066C55.857 10.3434 55.9389 10.5074 56.0215 10.5987C56.104 10.6899 56.2168 10.7323 56.3598 10.7259C56.5028 10.7195 56.7156 10.6678 56.9983 10.5708C57.0212 10.5629 57.0406 10.5819 57.0563 10.6277C57.072 10.6736 57.0684 10.7004 57.0455 10.7083C56.7705 10.8027 56.5514 10.8736 56.3884 10.9211L55.4333 11.2362L54.509 11.5663C54.3512 11.629 54.1309 11.7089 53.8482 11.8059C53.8253 11.8138 53.806 11.7948 53.7902 11.749C53.7745 11.7031 53.7781 11.6763 53.801 11.6684C54.0761 11.574 54.272 11.4854 54.3887 11.4026C54.5131 11.3172 54.5799 11.2131 54.589 11.0904C54.6031 10.9575 54.5709 10.7764 54.4922 10.5472L52.6707 5.24122C52.5815 4.98146 52.4868 4.81755 52.3866 4.74947C52.2863 4.6814 52.1292 4.68408 51.9153 4.75752Z" fill="url(#paint14_linear_164_165)"/>
<path d="M70.6066 7.6738C70.6464 7.66715 70.6703 7.68773 70.6783 7.73554C70.6863 7.78334 70.6704 7.81057 70.6305 7.81721C70.4712 7.84381 70.2229 7.87705 69.8856 7.91696C69.5323 7.95953 69.28 7.99344 69.1287 8.0187C68.9295 8.05194 68.6878 8.10046 68.4036 8.16425C68.1354 8.22539 67.9216 8.26926 67.7623 8.29585C67.7304 8.30117 67.7105 8.27992 67.7025 8.23212C67.6945 8.18431 67.7065 8.15775 67.7383 8.15244C67.9455 8.11787 68.0896 8.07335 68.1705 8.01889C68.2582 7.95513 68.2927 7.86748 68.2741 7.75593C68.2515 7.62048 68.1339 7.40671 67.9214 7.1146L66.8395 5.63679L63.8995 6.12739L63.6069 7.24493C63.5419 7.49327 63.526 7.71704 63.5592 7.91622C63.6071 8.20305 63.7439 8.40952 63.9697 8.53563C64.2034 8.66042 64.4916 8.69422 64.8342 8.63705C64.874 8.63041 64.898 8.65098 64.9059 8.69879C64.9139 8.74659 64.898 8.77382 64.8581 8.78047C64.7147 8.8044 64.5062 8.831 64.2327 8.86027C63.9273 8.89486 63.663 8.93076 63.4399 8.96799C63.2248 9.00389 62.9672 9.05507 62.6671 9.12152C62.3989 9.18266 62.1811 9.22719 62.0138 9.25511C61.9819 9.26043 61.962 9.23919 61.954 9.19138C61.946 9.14358 61.958 9.11702 61.9899 9.1117C62.2129 9.07447 62.3929 8.99941 62.5296 8.8865C62.665 8.76563 62.7892 8.57704 62.902 8.32072C63.0135 8.05643 63.1343 7.67595 63.2643 7.17926L64.9064 1.04575C64.9184 1.01919 64.9522 1.00125 65.008 0.991948C65.0717 0.981311 65.1096 0.98728 65.1215 1.00985L69.0905 6.39129C69.4637 6.91045 69.7599 7.2623 69.9791 7.44684C70.1982 7.63139 70.4074 7.70704 70.6066 7.6738ZM63.999 5.76683L66.6044 5.33207L64.7753 2.83653L63.999 5.76683Z" fill="url(#paint15_linear_164_165)"/>
<path d="M77.589 6.54291C77.589 6.75293 77.6051 6.90641 77.6374 7.00334C77.6697 7.09219 77.7303 7.15278 77.8192 7.18509C77.9161 7.2174 78.0696 7.23355 78.2796 7.23355H78.6916C79.3216 7.23355 79.8668 7.06796 80.3273 6.73678C80.7877 6.39751 81.0946 5.94113 81.2481 5.36761C81.2481 5.35146 81.2643 5.34338 81.2966 5.34338C81.3127 5.34338 81.3289 5.35146 81.345 5.36761C81.3693 5.37569 81.3814 5.38377 81.3814 5.39184C81.3087 6.19153 81.2723 6.85794 81.2723 7.39107C81.2723 7.45569 81.2562 7.50416 81.2239 7.53647C81.1996 7.5607 81.1552 7.57282 81.0906 7.57282H75.3717C75.3555 7.57282 75.3474 7.54858 75.3474 7.50012C75.3474 7.45165 75.3555 7.42742 75.3717 7.42742C75.6302 7.42742 75.8159 7.40722 75.929 7.36683C76.0502 7.32645 76.131 7.24971 76.1714 7.13662C76.2198 7.01546 76.2441 6.83371 76.2441 6.59138V0.981436C76.2441 0.739107 76.2198 0.561398 76.1714 0.448311C76.131 0.335223 76.0502 0.258485 75.929 0.218096C75.8079 0.169631 75.6221 0.145398 75.3717 0.145398C75.3555 0.145398 75.3474 0.121165 75.3474 0.0726988C75.3474 0.0242329 75.3555 0 75.3717 0L75.9896 0.0121163C76.3612 0.0282715 76.6681 0.036349 76.9105 0.036349C77.1528 0.036349 77.4597 0.0282715 77.8313 0.0121163L78.4492 0C78.4735 0 78.4856 0.0242329 78.4856 0.0726988C78.4856 0.121165 78.4735 0.145398 78.4492 0.145398C78.1988 0.145398 78.013 0.169631 77.8919 0.218096C77.7707 0.258485 77.6899 0.339262 77.6496 0.460427C77.6092 0.573514 77.589 0.751223 77.589 0.993553V6.54291Z" fill="url(#paint16_linear_164_165)"/>
<path d="M100.809 10.3037C100.741 10.5023 100.707 10.6527 100.706 10.7549C100.707 10.8494 100.745 10.9264 100.818 10.9858C100.9 11.0478 101.04 11.1129 101.238 11.1811L101.628 11.3149C102.224 11.5195 102.793 11.5399 103.336 11.3762C103.882 11.2048 104.32 10.8728 104.652 10.3802C104.657 10.3649 104.675 10.3625 104.705 10.373C104.721 10.3782 104.733 10.3911 104.743 10.4117C104.764 10.4272 104.773 10.4387 104.77 10.4464C104.442 11.1791 104.191 11.7976 104.018 12.3019C103.997 12.363 103.966 12.4036 103.925 12.4237C103.894 12.4387 103.848 12.4357 103.787 12.4148L98.3777 10.5578C98.3624 10.5526 98.3626 10.527 98.3784 10.4812C98.3941 10.4353 98.4096 10.415 98.4249 10.4203C98.6694 10.5042 98.8517 10.5454 98.9717 10.544C99.0994 10.5451 99.2008 10.4988 99.2757 10.4049C99.3609 10.306 99.4428 10.142 99.5215 9.91281L101.343 4.60683C101.422 4.37763 101.456 4.20168 101.447 4.07899C101.446 3.95891 101.394 3.8601 101.293 3.78256C101.194 3.69738 101.026 3.61413 100.789 3.53283C100.774 3.52758 100.774 3.50204 100.79 3.4562C100.806 3.41036 100.821 3.39006 100.837 3.39531L101.417 3.60741C101.763 3.74334 102.051 3.85065 102.28 3.92933C102.509 4.00802 102.802 4.10004 103.159 4.20541L103.747 4.3946C103.77 4.40247 103.774 4.42932 103.758 4.47516C103.742 4.521 103.723 4.53999 103.7 4.53212C103.463 4.45081 103.28 4.41341 103.149 4.4199C103.022 4.41876 102.919 4.46893 102.842 4.57042C102.767 4.66427 102.69 4.82579 102.611 5.05499L100.809 10.3037Z" fill="url(#paint17_linear_164_165)"/>
<path d="M115.346 18.0041C115.381 18.0233 115.387 18.0542 115.364 18.0968C115.341 18.1395 115.312 18.1512 115.276 18.132C115.134 18.0551 114.918 17.9288 114.627 17.7531C114.322 17.5697 114.102 17.4415 113.967 17.3685C113.79 17.2724 113.569 17.1622 113.306 17.038C113.057 16.9215 112.861 16.8248 112.719 16.7479C112.691 16.7325 112.688 16.7035 112.711 16.6609C112.734 16.6183 112.76 16.6047 112.788 16.62C112.973 16.72 113.114 16.7734 113.211 16.7801C113.32 16.7836 113.401 16.7357 113.455 16.6362C113.52 16.5154 113.558 16.2745 113.57 15.9135L113.624 14.0828L111.003 12.6641L110.085 13.3663C109.881 13.5223 109.731 13.6892 109.635 13.8668C109.497 14.1225 109.478 14.3695 109.579 14.6077C109.687 14.8497 109.893 15.0534 110.199 15.2187C110.234 15.2379 110.241 15.2688 110.217 15.3115C110.194 15.3541 110.165 15.3658 110.13 15.3466C110.002 15.2774 109.821 15.1703 109.587 15.0254C109.325 14.8651 109.094 14.7311 108.895 14.6235C108.703 14.5197 108.469 14.4018 108.191 14.2699C107.942 14.1534 107.743 14.0548 107.593 13.9741C107.565 13.9587 107.562 13.9297 107.585 13.8871C107.608 13.8444 107.634 13.8308 107.663 13.8462C107.862 13.9538 108.05 14.0051 108.227 14C108.408 13.9878 108.622 13.9152 108.868 13.7823C109.119 13.6422 109.448 13.4161 109.855 13.104L114.918 9.27244C114.944 9.25882 114.982 9.26546 115.032 9.29238C115.088 9.32313 115.115 9.35109 115.11 9.37625L114.937 16.0608C114.913 16.6997 114.93 17.1593 114.99 17.4396C115.049 17.7198 115.168 17.908 115.346 18.0041ZM111.303 12.4407L113.626 13.6979L113.715 10.6051L111.303 12.4407Z" fill="url(#paint18_linear_164_165)"/>
<path d="M130.55 20.1136C130.562 20.1236 130.554 20.1477 130.524 20.1859C130.494 20.2241 130.473 20.2383 130.46 20.2284C130.224 20.0448 129.922 19.9732 129.553 20.0134C129.195 20.0523 128.813 20.1949 128.406 20.4413L122.961 23.7879C122.935 23.8085 122.89 23.7939 122.826 23.7443C122.762 23.6947 122.737 23.6547 122.75 23.6242L123.543 20.0804L120.561 21.92C120.535 21.9405 120.49 21.926 120.426 21.8763C120.362 21.8267 120.337 21.7867 120.35 21.7562L121.938 14.6857C122.002 14.4073 122.036 14.1986 122.042 14.0598C122.054 13.9259 122.034 13.8132 121.982 13.7218C121.942 13.629 121.861 13.5354 121.74 13.4412C121.721 13.4263 121.726 13.3997 121.756 13.3615C121.786 13.3232 121.81 13.3116 121.829 13.3264C121.925 13.4009 121.99 13.4561 122.023 13.4923C122.14 13.6043 122.301 13.7396 122.505 13.8984C122.932 14.2308 123.297 14.5048 123.6 14.7202C123.688 14.7784 123.793 14.8546 123.914 14.9488C123.933 14.9637 123.928 14.9903 123.898 15.0285C123.868 15.0668 123.844 15.0784 123.825 15.0636C123.665 14.9395 123.538 14.8662 123.443 14.8435C123.355 14.8257 123.278 14.8583 123.214 14.9411C123.129 15.0495 123.039 15.3169 122.942 15.7434L121.821 20.7355L123.651 19.6267L124.338 16.5536C124.409 16.2398 124.438 15.9915 124.427 15.8087C124.421 15.6196 124.363 15.4828 124.255 15.3985C124.236 15.3836 124.241 15.357 124.271 15.3188C124.301 15.2805 124.325 15.2688 124.344 15.2837C124.408 15.3333 124.476 15.3968 124.549 15.474C124.633 15.5498 124.755 15.6498 124.915 15.7738C125.278 16.0566 125.586 16.2859 125.838 16.4617C125.907 16.5049 125.992 16.5662 126.094 16.6456C126.113 16.6605 126.108 16.6871 126.078 16.7253C126.048 16.7636 126.024 16.7752 126.005 16.7604C125.915 16.6909 125.838 16.6516 125.774 16.6423C125.721 16.6317 125.672 16.655 125.627 16.7124C125.543 16.8208 125.448 17.1204 125.342 17.6113L125.071 18.828L125.808 18.3735C126.232 18.1193 126.515 17.8997 126.659 17.7149C126.803 17.53 126.795 17.3756 126.636 17.2515C126.616 17.2367 126.622 17.2101 126.652 17.1718C126.681 17.1336 126.706 17.1219 126.725 17.1368C126.776 17.1765 126.825 17.225 126.873 17.2824C126.931 17.3384 127.082 17.4607 127.324 17.6492C127.432 17.7336 127.568 17.8289 127.731 17.9352L128.092 18.201C128.105 18.2109 128.096 18.235 128.067 18.2733C128.037 18.3115 128.016 18.3257 128.003 18.3158C127.576 17.9834 126.929 18.0841 126.063 18.618L124.973 19.2892L124.237 22.6014L128.038 20.2626C128.274 20.1182 128.456 19.9631 128.585 19.7974C128.739 19.5997 128.809 19.4039 128.796 19.2098C128.79 19.0206 128.704 18.8615 128.538 18.7325C128.519 18.7176 128.525 18.6911 128.554 18.6528C128.584 18.6146 128.609 18.6029 128.628 18.6178L129.06 18.9697C129.28 19.161 129.485 19.3311 129.676 19.48C129.804 19.5792 129.955 19.687 130.131 19.8032L130.55 20.1136Z" fill="url(#paint19_linear_164_165)"/>
<path d="M137.134 40.1202C136.63 39.3493 136.335 38.5871 136.248 37.8335C136.167 37.0754 136.275 36.383 136.569 35.7562C136.864 35.1294 137.313 34.6194 137.914 34.2261C138.557 33.8064 139.242 33.6 139.97 33.6067C140.703 33.6202 141.404 33.8374 142.075 34.2581C142.752 34.6744 143.336 35.2578 143.826 36.0084C144.038 36.333 144.223 36.6753 144.381 37.0352C144.546 37.3908 144.652 37.6931 144.699 37.9422C144.72 38.0343 144.723 38.0903 144.707 38.1103C144.702 38.1327 144.655 38.1782 144.565 38.2468L143.241 39.2998C143.221 39.3131 143.194 39.3016 143.161 39.2655C143.132 39.2361 143.129 39.2091 143.151 39.1847C143.317 38.951 143.468 38.6499 143.603 38.2815C143.739 37.9131 143.801 37.5059 143.789 37.06C143.778 36.614 143.635 36.1814 143.361 35.7621C143.078 35.3294 142.702 35.0111 142.231 34.8073C141.76 34.6035 141.236 34.5404 140.66 34.618C140.088 34.7023 139.511 34.9344 138.929 35.3143C138.294 35.7296 137.803 36.2191 137.457 36.7827C137.116 37.3531 136.946 37.9419 136.947 38.549C136.948 39.1562 137.123 39.7269 137.472 40.2611C137.653 40.5384 137.823 40.7315 137.981 40.8405C138.139 40.9495 138.328 40.9804 138.548 40.9332C138.768 40.8859 139.05 40.7497 139.395 40.5243C139.747 40.2946 139.977 40.1153 140.086 39.9863C140.201 39.853 140.238 39.7032 140.197 39.537C140.161 39.3776 140.034 39.1322 139.818 38.8009C139.791 38.7603 139.805 38.7223 139.859 38.687C139.879 38.6737 139.899 38.6661 139.917 38.664C139.946 38.6643 139.965 38.6712 139.973 38.6847C140.315 39.2816 140.603 39.7592 140.837 40.1176C141.063 40.4625 141.307 40.8143 141.57 41.173C141.588 41.2 141.573 41.229 141.526 41.2599C141.483 41.2976 141.45 41.2996 141.428 41.2658C141.355 41.1396 141.274 41.0672 141.185 41.0484C141.107 41.032 140.985 41.0678 140.821 41.1559C140.657 41.244 140.382 41.414 139.996 41.6658C139.692 41.8646 139.482 42.0162 139.367 42.1204C139.256 42.2314 139.184 42.2979 139.15 42.32C139.109 42.3465 139.078 42.3574 139.056 42.3527C139.033 42.348 139 42.3265 138.955 42.288C138.196 41.5393 137.589 40.8167 137.134 40.1202Z" fill="url(#paint20_linear_164_165)"/>
<path d="M144.305 53.6334C144.312 53.6482 144.293 53.6654 144.248 53.6848C144.204 53.7043 144.178 53.7066 144.172 53.6918L143.306 51.7167C143.234 51.554 143.393 51.1225 143.783 50.4224C144.18 49.719 144.77 48.8209 145.552 47.7281C145.518 47.6721 145.477 47.5887 145.429 47.4777C145.302 47.1892 145.217 46.9842 145.172 46.8626L142.72 47.9382C142.491 48.0388 142.332 48.1303 142.245 48.2127C142.158 48.2952 142.118 48.3962 142.127 48.516C142.138 48.6432 142.196 48.8252 142.3 49.0619C142.306 49.0767 142.287 49.0938 142.243 49.1133C142.199 49.1327 142.173 49.1351 142.167 49.1203C142.06 48.8762 141.979 48.6822 141.925 48.5384L141.566 47.6903L141.2 46.8851C141.127 46.7404 141.036 46.5423 140.926 46.2908C140.916 46.2686 140.933 46.2478 140.978 46.2283C141.022 46.2089 141.049 46.2102 141.059 46.2324C141.163 46.4691 141.256 46.6311 141.338 46.7185C141.424 46.8132 141.526 46.8564 141.646 46.8479C141.777 46.8436 141.953 46.7928 142.175 46.6955L147.312 44.442C147.534 44.3447 147.689 44.2548 147.776 44.1724C147.863 44.09 147.901 43.9852 147.89 43.858C147.885 43.7275 147.833 43.5477 147.732 43.3184C147.726 43.3036 147.745 43.2864 147.789 43.267C147.833 43.2475 147.859 43.2452 147.865 43.2599L148.112 43.8529C148.247 44.1997 148.358 44.4729 148.445 44.6726C148.556 44.9241 148.682 45.1819 148.824 45.4459C148.874 45.5388 148.933 45.6539 149.002 45.7912C149.074 45.9359 149.149 46.097 149.227 46.2745C149.523 46.9477 149.626 47.5244 149.536 48.0046C149.454 48.4815 149.192 48.8173 148.748 49.012C148.341 49.1905 147.922 49.2417 147.492 49.1658C147.069 49.0867 146.677 48.906 146.315 48.6237C145.687 49.6049 145.209 50.4055 144.881 51.0256C144.553 51.6457 144.343 52.1614 144.25 52.5727C144.157 52.9839 144.175 53.3375 144.305 53.6334ZM145.483 46.7263C145.531 46.9168 145.61 47.1378 145.721 47.3894C145.909 47.8184 146.162 48.0735 146.48 48.1546C146.808 48.2398 147.239 48.1656 147.771 47.932C148.378 47.6659 148.757 47.3938 148.908 47.1157C149.06 46.8376 149.062 46.5321 148.916 46.1992C148.787 45.9033 148.639 45.7168 148.473 45.6398C148.306 45.5627 148.094 45.5809 147.835 45.6945L145.483 46.7263Z" fill="url(#paint21_linear_164_165)"/>
<path d="M146.104 60.9164C145.92 60.1882 145.923 59.4956 146.115 58.8387C146.317 58.1877 146.668 57.6322 147.168 57.1722C147.678 56.7181 148.278 56.4038 148.967 56.2293C149.773 56.0251 150.514 56.0541 151.189 56.3166C151.871 56.577 152.438 56.9877 152.888 57.5486C153.34 58.1173 153.651 58.7345 153.819 59.4001C154.008 60.144 153.997 60.8425 153.787 61.4955C153.586 62.1465 153.237 62.6932 152.74 63.1355C152.246 63.5857 151.678 63.892 151.036 64.0546C150.323 64.2351 149.622 64.2127 148.931 63.9876C148.241 63.7624 147.643 63.3763 147.138 62.8293C146.635 62.2901 146.29 61.6525 146.104 60.9164ZM146.496 61.2297C146.607 61.6682 146.831 62.028 147.169 62.3091C147.517 62.596 147.958 62.7759 148.493 62.8487C149.036 62.9195 149.648 62.8687 150.329 62.6962C151.05 62.5137 151.664 62.2415 152.172 61.8795C152.688 61.5155 153.054 61.0853 153.27 60.589C153.486 60.0927 153.524 59.5665 153.383 59.0106C153.203 58.298 152.794 57.8183 152.156 57.5714C151.527 57.3225 150.73 57.3201 149.767 57.564C149.008 57.7563 148.355 58.0424 147.81 58.4222C147.274 58.8078 146.888 59.2429 146.653 59.7275C146.419 60.22 146.367 60.7207 146.496 61.2297Z" fill="url(#paint22_linear_164_165)"/>
<path d="M154.337 74.3366C154.772 74.3006 155.106 74.1716 155.339 73.9497C155.572 73.7358 155.674 73.4518 155.645 73.0976C155.644 73.0815 155.667 73.0714 155.715 73.0674C155.764 73.0634 155.788 73.0695 155.79 73.0856L155.826 73.6662C155.835 73.9734 155.847 74.2196 155.863 74.4047C155.875 74.5577 155.902 74.7784 155.942 75.0669L156 75.6213C156.001 75.6374 155.978 75.6475 155.929 75.6515C155.881 75.6555 155.856 75.6494 155.855 75.6333C155.829 75.3194 155.684 75.0842 155.42 74.9278C155.155 74.7714 154.806 74.7112 154.371 74.7472L151.014 75.0253C150.451 75.072 149.946 74.9883 149.498 74.7741C149.051 74.5599 148.691 74.233 148.42 73.7935C148.157 73.3614 148.001 72.8475 147.952 72.2518C147.903 71.6561 147.972 71.1194 148.159 70.6419C148.346 70.1644 148.642 69.7751 149.047 69.4741C149.46 69.1805 149.957 69.0097 150.536 68.9616L154.437 68.6384C154.678 68.6184 154.853 68.5796 154.962 68.522C155.071 68.4724 155.141 68.3855 155.171 68.2614C155.21 68.1447 155.219 67.9616 155.199 67.7121C155.197 67.6879 155.22 67.6738 155.268 67.6698C155.316 67.6658 155.342 67.6759 155.344 67.7001L155.385 68.341C155.399 68.7127 155.415 69.0072 155.433 69.2245C155.453 69.466 155.487 69.7713 155.534 70.1402L155.597 70.7551C155.599 70.7792 155.576 70.7933 155.527 70.7973C155.479 70.8013 155.454 70.7912 155.452 70.7671C155.431 70.5175 155.392 70.3344 155.333 70.2176C155.276 70.1089 155.185 70.0354 155.06 69.9971C154.944 69.9662 154.765 69.9608 154.523 69.9808L151.07 70.2669C150.112 70.3463 149.419 70.5942 148.992 71.0106C148.564 71.4269 148.379 71.9813 148.437 72.6736C148.492 73.3418 148.737 73.8483 149.17 74.1933C149.612 74.5377 150.212 74.6785 150.968 74.6158L154.337 74.3366Z" fill="url(#paint23_linear_164_165)"/>
<path d="M149.172 83.5493C148.914 83.5279 148.723 83.5404 148.597 83.5868C148.48 83.6338 148.391 83.7318 148.33 83.8807C148.268 84.0377 148.223 84.2893 148.194 84.6355C148.192 84.6596 148.167 84.6697 148.119 84.6657C148.071 84.6617 148.048 84.6476 148.05 84.6234C148.077 84.2934 148.102 84.0361 148.126 83.8516L148.225 82.8021L148.286 81.9196C148.291 81.7579 148.305 81.5403 148.328 81.2666C148.33 81.2424 148.355 81.2323 148.403 81.2363C148.451 81.2403 148.475 81.2544 148.473 81.2786C148.451 81.5362 148.456 81.723 148.487 81.839C148.517 81.9631 148.587 82.0499 148.696 82.0995C148.814 82.1498 148.993 82.1849 149.235 82.2049L154.825 82.6682C155.067 82.6882 155.246 82.6828 155.362 82.6519C155.478 82.6209 155.561 82.5468 155.611 82.4294C155.669 82.3126 155.709 82.1295 155.73 81.8799C155.732 81.8558 155.757 81.8457 155.805 81.8497C155.853 81.8537 155.877 81.8678 155.875 81.8919L155.809 82.5309C155.763 82.8999 155.73 83.193 155.712 83.4104C155.696 83.6036 155.689 83.834 155.691 84.1017C155.691 84.207 155.688 84.3405 155.683 84.5022C155.677 84.6638 155.666 84.8493 155.649 85.0586C155.581 85.8797 155.354 86.5134 154.968 86.9597C154.591 87.4066 154.044 87.6004 153.327 87.541C152.828 87.4997 152.416 87.3359 152.092 87.0496C151.767 86.7633 151.533 86.4075 151.39 85.9823C151.246 85.5651 151.192 85.1432 151.227 84.7165C151.245 84.4992 151.281 84.3117 151.335 84.154C151.336 84.1379 151.357 84.1315 151.397 84.1349C151.421 84.1369 151.445 84.1429 151.468 84.153C151.491 84.1711 151.498 84.1878 151.489 84.2033C151.446 84.3213 151.419 84.4569 151.406 84.6098C151.376 84.9801 151.523 85.3004 151.849 85.5705C152.175 85.8488 152.656 86.0142 153.292 86.0669C153.928 86.1196 154.43 86.0235 154.799 85.7785C155.167 85.5415 155.372 85.1654 155.415 84.6502C155.434 84.4248 155.394 84.2675 155.296 84.1783C155.198 84.0892 154.996 84.0319 154.69 84.0065L149.172 83.5493Z" fill="url(#paint24_linear_164_165)"/>
<path d="M148.908 110.694C148.756 111.042 148.572 111.38 148.357 111.709C148.146 112.049 147.95 112.307 147.767 112.482C147.715 112.539 147.668 112.567 147.624 112.566C147.585 112.575 147.523 112.565 147.438 112.537L145.833 112.005C145.811 111.995 145.804 111.97 145.813 111.93C145.822 111.889 145.844 111.868 145.88 111.867C146.578 111.926 147.17 111.832 147.657 111.587C148.151 111.345 148.516 110.954 148.753 110.414C148.974 109.911 149.035 109.4 148.936 108.881C148.842 108.372 148.594 107.892 148.191 107.442C147.786 107 147.246 106.631 146.573 106.336C145.892 106.037 145.243 105.889 144.625 105.891C144.01 105.904 143.473 106.052 143.014 106.336C142.559 106.63 142.214 107.043 141.98 107.576C141.757 108.086 141.705 108.575 141.826 109.043C141.955 109.514 142.269 110.044 142.769 110.634C142.788 110.651 142.786 110.677 142.762 110.711C142.738 110.744 142.716 110.756 142.693 110.747L141.39 109.977C141.308 109.923 141.255 109.882 141.232 109.854C141.217 109.83 141.209 109.778 141.208 109.698C141.263 108.911 141.442 108.169 141.747 107.474C142.095 106.682 142.554 106.037 143.126 105.538C143.702 105.05 144.337 104.746 145.033 104.628C145.729 104.51 146.421 104.602 147.109 104.903C147.811 105.212 148.357 105.667 148.745 106.27C149.138 106.883 149.35 107.576 149.382 108.348C149.41 109.128 149.252 109.91 148.908 110.694Z" fill="url(#paint25_linear_164_165)"/>
<path d="M136.672 116.587C137.083 115.958 137.595 115.492 138.208 115.188C138.824 114.896 139.47 114.778 140.147 114.834C140.827 114.902 141.464 115.13 142.059 115.519C142.756 115.974 143.236 116.538 143.5 117.212C143.77 117.891 143.852 118.586 143.744 119.297C143.632 120.015 143.388 120.662 143.013 121.236C142.593 121.879 142.072 122.344 141.45 122.632C140.834 122.925 140.195 123.038 139.534 122.972C138.868 122.914 138.258 122.703 137.703 122.341C137.088 121.939 136.629 121.408 136.327 120.747C136.026 120.087 135.905 119.386 135.965 118.644C136.021 117.908 136.257 117.223 136.672 116.587ZM136.707 117.087C136.459 117.466 136.347 117.875 136.369 118.314C136.393 118.764 136.56 119.21 136.868 119.653C137.184 120.101 137.636 120.517 138.224 120.901C138.846 121.308 139.463 121.575 140.073 121.704C140.691 121.837 141.255 121.815 141.766 121.638C142.278 121.46 142.69 121.132 143.004 120.652C143.406 120.036 143.482 119.41 143.232 118.774C142.989 118.143 142.451 117.555 141.619 117.011C140.963 116.583 140.311 116.297 139.662 116.153C139.016 116.02 138.434 116.031 137.918 116.186C137.398 116.347 136.994 116.648 136.707 117.087Z" fill="url(#paint26_linear_164_165)"/>
<path d="M126.534 129.402C126.523 129.413 126.5 129.403 126.464 129.37C126.429 129.337 126.416 129.315 126.427 129.303C126.613 129.101 126.764 128.943 126.879 128.83L127.496 128.178L128.102 127.502C128.2 127.383 128.339 127.226 128.52 127.03C128.536 127.012 128.562 127.02 128.598 127.052C128.634 127.085 128.643 127.11 128.627 127.128C128.397 127.378 128.271 127.575 128.248 127.719C128.226 127.862 128.309 128.022 128.5 128.197L128.659 128.327L132.478 131.497L129.863 125.697C129.85 125.663 129.86 125.628 129.893 125.593C129.925 125.557 129.959 125.544 129.994 125.554L136.358 127.246L133.205 124.212C132.89 123.911 132.58 123.741 132.275 123.702C131.971 123.674 131.707 123.782 131.483 124.026C131.466 124.044 131.44 124.036 131.405 124.004C131.369 123.971 131.359 123.945 131.376 123.928C131.523 123.767 131.641 123.645 131.729 123.561L132.19 123.079L132.698 122.51C132.779 122.409 132.894 122.278 133.042 122.118C133.058 122.1 133.084 122.108 133.12 122.141C133.155 122.173 133.165 122.199 133.149 122.216C132.924 122.46 132.839 122.738 132.891 123.05C132.944 123.363 133.126 123.667 133.435 123.963L137.052 127.44L137.069 127.439C137.398 127.523 137.674 127.546 137.895 127.508C138.111 127.476 138.295 127.377 138.449 127.211C138.465 127.193 138.491 127.201 138.527 127.233C138.562 127.266 138.572 127.292 138.556 127.309L138.161 127.72C138.078 127.798 137.977 127.902 137.857 128.033L137.431 128.513C137.387 128.572 137.327 128.644 137.251 128.727C137.18 128.804 137.098 128.839 137.006 128.831C136.915 128.824 136.716 128.783 136.41 128.71L130.975 127.297L133.302 132.569C133.353 132.681 133.376 132.769 133.373 132.832C133.371 132.906 133.339 132.976 133.279 133.041C133.23 133.095 133.172 133.151 133.106 133.211C133.034 133.277 132.958 133.355 132.875 133.444L132.4 133.978C132.33 134.067 132.223 134.188 132.081 134.343C132.064 134.361 132.038 134.353 132.003 134.32C131.967 134.287 131.957 134.262 131.974 134.244C132.231 133.965 132.361 133.711 132.363 133.482C132.365 133.253 132.241 133.036 131.993 132.829L127.748 129.317C127.553 129.159 127.4 129.057 127.29 129.01C127.174 128.969 127.063 128.977 126.956 129.032C126.845 129.094 126.704 129.217 126.534 129.402Z" fill="url(#paint27_linear_164_165)"/>
<path d="M122.098 134.173C121.94 133.969 121.801 133.837 121.682 133.776C121.568 133.721 121.435 133.722 121.284 133.778C121.127 133.839 120.911 133.976 120.637 134.189C120.618 134.204 120.594 134.193 120.564 134.154C120.534 134.116 120.529 134.09 120.548 134.075C120.809 133.871 121.016 133.716 121.167 133.608L122.007 132.97L122.697 132.417C122.82 132.312 122.989 132.174 123.206 132.006C123.225 131.991 123.25 132.003 123.279 132.041C123.309 132.079 123.314 132.106 123.295 132.121C123.091 132.279 122.957 132.409 122.893 132.511C122.822 132.617 122.805 132.727 122.843 132.841C122.885 132.962 122.981 133.117 123.13 133.309L126.576 137.736C126.725 137.927 126.85 138.055 126.951 138.119C127.052 138.184 127.163 138.195 127.284 138.152C127.409 138.116 127.57 138.021 127.768 137.867C127.787 137.852 127.812 137.864 127.841 137.902C127.871 137.94 127.876 137.967 127.857 137.982L127.343 138.367C127.04 138.582 126.802 138.757 126.63 138.891C126.477 139.01 126.303 139.161 126.108 139.344C126.03 139.415 125.929 139.503 125.807 139.608C125.684 139.714 125.54 139.831 125.375 139.96C124.724 140.466 124.105 140.729 123.515 140.747C122.931 140.772 122.418 140.501 121.976 139.934C121.669 139.539 121.51 139.125 121.501 138.692C121.491 138.259 121.595 137.846 121.811 137.453C122.02 137.064 122.294 136.739 122.632 136.476C122.804 136.342 122.966 136.241 123.118 136.174C123.131 136.164 123.15 136.175 123.175 136.207C123.189 136.226 123.201 136.247 123.21 136.271C123.212 136.3 123.204 136.317 123.186 136.32C123.071 136.369 122.953 136.441 122.831 136.535C122.538 136.763 122.403 137.089 122.425 137.512C122.441 137.94 122.644 138.405 123.036 138.909C123.428 139.413 123.839 139.717 124.269 139.823C124.693 139.933 125.109 139.829 125.517 139.512C125.695 139.373 125.784 139.237 125.783 139.105C125.783 138.972 125.688 138.785 125.499 138.543L122.098 134.173Z" fill="url(#paint28_linear_164_165)"/>
<path d="M107.693 142.138C107.657 142.157 107.628 142.145 107.605 142.102C107.582 142.06 107.588 142.029 107.623 142.01C107.766 141.933 107.99 141.821 108.296 141.673C108.616 141.518 108.844 141.404 108.979 141.331C109.156 141.235 109.369 141.111 109.617 140.958C109.851 140.813 110.039 140.703 110.181 140.626C110.209 140.61 110.235 140.624 110.258 140.666C110.281 140.709 110.279 140.738 110.25 140.753C110.065 140.853 109.944 140.942 109.885 141.02C109.823 141.109 109.818 141.203 109.872 141.302C109.938 141.423 110.118 141.587 110.414 141.795L111.917 142.841L114.538 141.422L114.452 140.27C114.433 140.014 114.376 139.798 114.279 139.62C114.141 139.364 113.945 139.213 113.69 139.167C113.429 139.125 113.145 139.187 112.84 139.352C112.804 139.371 112.775 139.36 112.752 139.317C112.729 139.274 112.735 139.244 112.77 139.224C112.898 139.155 113.087 139.062 113.336 138.946C113.614 138.814 113.852 138.694 114.051 138.586C114.243 138.483 114.47 138.351 114.732 138.19C114.966 138.045 115.157 137.933 115.306 137.852C115.335 137.836 115.361 137.85 115.384 137.893C115.407 137.935 115.404 137.964 115.376 137.98C115.177 138.087 115.031 138.217 114.938 138.368C114.849 138.526 114.793 138.745 114.77 139.024C114.75 139.31 114.759 139.709 114.798 140.221L115.236 146.556C115.233 146.585 115.207 146.613 115.158 146.639C115.101 146.67 115.063 146.677 115.044 146.659L109.543 142.858C109.021 142.488 108.627 142.252 108.36 142.148C108.093 142.045 107.87 142.041 107.693 142.138ZM114.561 141.796L112.238 143.053L114.779 144.819L114.561 141.796Z" fill="url(#paint29_linear_164_165)"/>
<path d="M99.185 153.172C99.1698 153.177 99.1542 153.157 99.1385 153.111C99.1228 153.065 99.1226 153.039 99.1378 153.034C99.4434 152.929 99.6421 152.724 99.7339 152.42C99.8283 152.122 99.806 151.771 99.667 151.366L97.6527 145.499C97.6448 145.476 97.6587 145.454 97.6943 145.433C97.7222 145.415 97.7464 145.411 97.767 145.421L105.242 149.696L103.712 145.238C103.573 144.833 103.379 144.541 103.13 144.362C102.88 144.183 102.606 144.144 102.308 144.246C102.293 144.252 102.278 144.231 102.262 144.186C102.246 144.14 102.246 144.114 102.261 144.109C102.475 144.035 102.641 143.983 102.758 143.951L103.381 143.75L104.087 143.495C104.215 143.443 104.4 143.375 104.645 143.291C104.668 143.283 104.687 143.302 104.703 143.348C104.719 143.393 104.715 143.42 104.692 143.428C104.356 143.544 104.133 143.752 104.023 144.055C103.906 144.36 103.917 144.715 104.056 145.12L105.72 149.967C106.067 150.156 106.349 150.268 106.566 150.305C106.778 150.351 106.98 150.342 107.171 150.276C107.186 150.271 107.202 150.291 107.218 150.337C107.233 150.383 107.234 150.409 107.218 150.414L106.733 150.568C106.631 150.594 106.485 150.64 106.294 150.706L105.427 151.016C105.322 151.06 105.194 151.109 105.041 151.161C104.98 151.182 104.929 151.183 104.888 151.163C104.847 151.143 104.771 151.096 104.66 151.023C104.47 150.892 104.338 150.805 104.263 150.762L98.7286 147.551L99.9994 151.252C100.141 151.665 100.336 151.961 100.586 152.14C100.835 152.319 101.109 152.357 101.407 152.255C101.422 152.25 101.438 152.27 101.453 152.316C101.469 152.362 101.469 152.387 101.454 152.393L100.957 152.55C100.708 152.619 100.499 152.682 100.331 152.74C100.178 152.792 99.9666 152.873 99.6968 152.983L99.185 153.172Z" fill="url(#paint30_linear_164_165)"/>
<path d="M86.9993 155.565C86.9833 155.568 86.9714 155.545 86.9634 155.498C86.9554 155.45 86.9594 155.424 86.9753 155.422C87.2223 155.381 87.4991 155.175 87.8058 154.804C88.1138 154.442 88.3687 154.006 88.5705 153.497L89.4664 151.21L89.0217 148.545C88.9804 148.298 88.9306 148.122 88.8722 148.017C88.8137 147.913 88.7254 147.849 88.6072 147.828C88.481 147.808 88.2905 147.82 88.0355 147.862C88.0116 147.866 87.9957 147.844 87.9877 147.796C87.9797 147.749 87.9877 147.723 88.0116 147.719C88.2745 147.675 88.4823 147.644 88.635 147.627L89.5334 147.489L90.4157 147.33C90.5738 147.295 90.7882 147.255 91.0591 147.21C91.0751 147.208 91.087 147.23 91.095 147.278C91.103 147.326 91.099 147.351 91.083 147.354C90.8281 147.396 90.6442 147.447 90.5313 147.507C90.4185 147.567 90.3514 147.656 90.3302 147.774C90.3023 147.902 90.3083 148.085 90.3482 148.324L90.7511 150.738L92.9486 153.16C93.3205 153.573 93.6207 153.85 93.8491 153.992C94.0709 154.144 94.2496 154.208 94.385 154.185C94.4089 154.181 94.4248 154.203 94.4328 154.251C94.4408 154.299 94.4328 154.325 94.4089 154.329L94.0365 154.379C93.8585 154.392 93.7337 154.405 93.662 154.417C93.3831 154.463 92.9821 154.538 92.4589 154.642L91.6721 154.785C91.6562 154.788 91.6442 154.766 91.6363 154.718C91.6283 154.67 91.6323 154.645 91.6482 154.642C91.7836 154.619 91.8859 154.57 91.9549 154.493C92.016 154.417 92.0379 154.327 92.0206 154.224C91.9993 154.096 91.9183 153.954 91.7775 153.797L89.7094 151.489L88.923 153.549C88.7678 153.943 88.7114 154.268 88.7539 154.523C88.7858 154.714 88.8695 154.848 89.005 154.923C89.1338 155.008 89.3058 155.033 89.5209 154.997C89.5448 154.993 89.5607 155.015 89.5687 155.063C89.5767 155.111 89.5687 155.136 89.5448 155.14L88.9094 155.234C88.5403 155.279 88.2123 155.326 87.9255 155.374C87.79 155.396 87.628 155.432 87.4395 155.48L86.9993 155.565Z" fill="url(#paint31_linear_164_165)"/>
<defs>
<linearGradient id="paint0_linear_164_165" x1="15.3711" y1="32.3774" x2="144.226" y2="121.497" gradientUnits="userSpaceOnUse">
<stop stop-color="#D89A26"/>
<stop offset="1" stop-color="#FFCD70"/>
</linearGradient>
<linearGradient id="paint1_linear_164_165" x1="15.3711" y1="32.3774" x2="144.226" y2="121.497" gradientUnits="userSpaceOnUse">
<stop stop-color="#D89A26"/>
<stop offset="1" stop-color="#FFCD70"/>
</linearGradient>
<linearGradient id="paint2_linear_164_165" x1="15.3711" y1="32.3774" x2="144.226" y2="121.497" gradientUnits="userSpaceOnUse">
<stop stop-color="#D89A26"/>
<stop offset="1" stop-color="#FFCD70"/>
</linearGradient>
<linearGradient id="paint3_linear_164_165" x1="15.3711" y1="32.3774" x2="144.226" y2="121.497" gradientUnits="userSpaceOnUse">
<stop stop-color="#D89A26"/>
<stop offset="1" stop-color="#FFCD70"/>
</linearGradient>
<linearGradient id="paint4_linear_164_165" x1="15.3711" y1="32.3774" x2="144.226" y2="121.497" gradientUnits="userSpaceOnUse">
<stop stop-color="#D89A26"/>
<stop offset="1" stop-color="#FFCD70"/>
</linearGradient>
<linearGradient id="paint5_linear_164_165" x1="15.3711" y1="32.3774" x2="144.226" y2="121.497" gradientUnits="userSpaceOnUse">
<stop stop-color="#D89A26"/>
<stop offset="1" stop-color="#FFCD70"/>
</linearGradient>
<linearGradient id="paint6_linear_164_165" x1="15.3711" y1="32.3774" x2="144.226" y2="121.497" gradientUnits="userSpaceOnUse">
<stop stop-color="#D89A26"/>
<stop offset="1" stop-color="#FFCD70"/>
</linearGradient>
<linearGradient id="paint7_linear_164_165" x1="15.3711" y1="32.3774" x2="144.226" y2="121.497" gradientUnits="userSpaceOnUse">
<stop stop-color="#D89A26"/>
<stop offset="1" stop-color="#FFCD70"/>
</linearGradient>
<linearGradient id="paint8_linear_164_165" x1="15.3711" y1="32.3774" x2="144.226" y2="121.497" gradientUnits="userSpaceOnUse">
<stop stop-color="#D89A26"/>
<stop offset="1" stop-color="#FFCD70"/>
</linearGradient>
<linearGradient id="paint9_linear_164_165" x1="15.3711" y1="32.3774" x2="144.226" y2="121.497" gradientUnits="userSpaceOnUse">
<stop stop-color="#D89A26"/>
<stop offset="1" stop-color="#FFCD70"/>
</linearGradient>
<linearGradient id="paint10_linear_164_165" x1="15.3711" y1="32.3774" x2="144.226" y2="121.497" gradientUnits="userSpaceOnUse">
<stop stop-color="#D89A26"/>
<stop offset="1" stop-color="#FFCD70"/>
</linearGradient>
<linearGradient id="paint11_linear_164_165" x1="15.3711" y1="32.3774" x2="144.226" y2="121.497" gradientUnits="userSpaceOnUse">
<stop stop-color="#D89A26"/>
<stop offset="1" stop-color="#FFCD70"/>
</linearGradient>
<linearGradient id="paint12_linear_164_165" x1="15.3711" y1="32.3774" x2="144.226" y2="121.497" gradientUnits="userSpaceOnUse">
<stop stop-color="#D89A26"/>
<stop offset="1" stop-color="#FFCD70"/>
</linearGradient>
<linearGradient id="paint13_linear_164_165" x1="15.3711" y1="32.3774" x2="144.226" y2="121.497" gradientUnits="userSpaceOnUse">
<stop stop-color="#D89A26"/>
<stop offset="1" stop-color="#FFCD70"/>
</linearGradient>
<linearGradient id="paint14_linear_164_165" x1="15.3711" y1="32.3774" x2="144.226" y2="121.497" gradientUnits="userSpaceOnUse">
<stop stop-color="#D89A26"/>
<stop offset="1" stop-color="#FFCD70"/>
</linearGradient>
<linearGradient id="paint15_linear_164_165" x1="15.3711" y1="32.3774" x2="144.226" y2="121.497" gradientUnits="userSpaceOnUse">
<stop stop-color="#D89A26"/>
<stop offset="1" stop-color="#FFCD70"/>
</linearGradient>
<linearGradient id="paint16_linear_164_165" x1="15.3711" y1="32.3774" x2="144.226" y2="121.497" gradientUnits="userSpaceOnUse">
<stop stop-color="#D89A26"/>
<stop offset="1" stop-color="#FFCD70"/>
</linearGradient>
<linearGradient id="paint17_linear_164_165" x1="15.3711" y1="32.3774" x2="144.226" y2="121.497" gradientUnits="userSpaceOnUse">
<stop stop-color="#D89A26"/>
<stop offset="1" stop-color="#FFCD70"/>
</linearGradient>
<linearGradient id="paint18_linear_164_165" x1="15.3711" y1="32.3774" x2="144.226" y2="121.497" gradientUnits="userSpaceOnUse">
<stop stop-color="#D89A26"/>
<stop offset="1" stop-color="#FFCD70"/>
</linearGradient>
<linearGradient id="paint19_linear_164_165" x1="15.3711" y1="32.3774" x2="144.226" y2="121.497" gradientUnits="userSpaceOnUse">
<stop stop-color="#D89A26"/>
<stop offset="1" stop-color="#FFCD70"/>
</linearGradient>
<linearGradient id="paint20_linear_164_165" x1="15.3711" y1="32.3774" x2="144.226" y2="121.497" gradientUnits="userSpaceOnUse">
<stop stop-color="#D89A26"/>
<stop offset="1" stop-color="#FFCD70"/>
</linearGradient>
<linearGradient id="paint21_linear_164_165" x1="15.3711" y1="32.3774" x2="144.226" y2="121.497" gradientUnits="userSpaceOnUse">
<stop stop-color="#D89A26"/>
<stop offset="1" stop-color="#FFCD70"/>
</linearGradient>
<linearGradient id="paint22_linear_164_165" x1="15.3711" y1="32.3774" x2="144.226" y2="121.497" gradientUnits="userSpaceOnUse">
<stop stop-color="#D89A26"/>
<stop offset="1" stop-color="#FFCD70"/>
</linearGradient>
<linearGradient id="paint23_linear_164_165" x1="15.3711" y1="32.3774" x2="144.226" y2="121.497" gradientUnits="userSpaceOnUse">
<stop stop-color="#D89A26"/>
<stop offset="1" stop-color="#FFCD70"/>
</linearGradient>
<linearGradient id="paint24_linear_164_165" x1="15.3711" y1="32.3774" x2="144.226" y2="121.497" gradientUnits="userSpaceOnUse">
<stop stop-color="#D89A26"/>
<stop offset="1" stop-color="#FFCD70"/>
</linearGradient>
<linearGradient id="paint25_linear_164_165" x1="15.3711" y1="32.3774" x2="144.226" y2="121.497" gradientUnits="userSpaceOnUse">
<stop stop-color="#D89A26"/>
<stop offset="1" stop-color="#FFCD70"/>
</linearGradient>
<linearGradient id="paint26_linear_164_165" x1="15.3711" y1="32.3774" x2="144.226" y2="121.497" gradientUnits="userSpaceOnUse">
<stop stop-color="#D89A26"/>
<stop offset="1" stop-color="#FFCD70"/>
</linearGradient>
<linearGradient id="paint27_linear_164_165" x1="15.3711" y1="32.3774" x2="144.226" y2="121.497" gradientUnits="userSpaceOnUse">
<stop stop-color="#D89A26"/>
<stop offset="1" stop-color="#FFCD70"/>
</linearGradient>
<linearGradient id="paint28_linear_164_165" x1="15.3711" y1="32.3774" x2="144.226" y2="121.497" gradientUnits="userSpaceOnUse">
<stop stop-color="#D89A26"/>
<stop offset="1" stop-color="#FFCD70"/>
</linearGradient>
<linearGradient id="paint29_linear_164_165" x1="15.3711" y1="32.3774" x2="144.226" y2="121.497" gradientUnits="userSpaceOnUse">
<stop stop-color="#D89A26"/>
<stop offset="1" stop-color="#FFCD70"/>
</linearGradient>
<linearGradient id="paint30_linear_164_165" x1="15.3711" y1="32.3774" x2="144.226" y2="121.497" gradientUnits="userSpaceOnUse">
<stop stop-color="#D89A26"/>
<stop offset="1" stop-color="#FFCD70"/>
</linearGradient>
<linearGradient id="paint31_linear_164_165" x1="15.3711" y1="32.3774" x2="144.226" y2="121.497" gradientUnits="userSpaceOnUse">
<stop stop-color="#D89A26"/>
<stop offset="1" stop-color="#FFCD70"/>
</linearGradient>
</defs>
</svg>
