<svg width="70" height="70" viewBox="0 0 70 70" fill="none" xmlns="http://www.w3.org/2000/svg">
<g clip-path="url(#clip0_169_526)">
<path d="M58.3333 58.3333C56.0259 58.3333 53.7703 57.6491 51.8517 56.3672C49.9331 55.0852 48.4378 53.2631 47.5547 51.1313C46.6717 48.9995 46.4407 46.6537 46.8908 44.3906C47.341 42.1275 48.4521 40.0487 50.0838 38.4171C51.7154 36.7855 53.7942 35.6743 56.0573 35.2242C58.3204 34.774 60.6662 35.0051 62.798 35.8881C64.9298 36.7711 66.7519 38.2664 68.0338 40.185C69.3158 42.1036 70 44.3592 70 46.6667C69.9965 49.7598 68.7662 52.7252 66.5791 54.9124C64.3919 57.0996 61.4265 58.3299 58.3333 58.3333ZM58.3333 37.9167C56.6027 37.9167 54.911 38.4299 53.4721 39.3913C52.0332 40.3528 50.9116 41.7193 50.2494 43.3182C49.5871 44.917 49.4138 46.6764 49.7515 48.3737C50.0891 50.0711 50.9224 51.6301 52.1461 52.8539C53.3699 54.0776 54.929 54.9109 56.6263 55.2485C58.3236 55.5862 60.083 55.4129 61.6818 54.7506C63.2807 54.0884 64.6472 52.9668 65.6087 51.5279C66.5702 50.089 67.0833 48.3973 67.0833 46.6667C67.081 44.3467 66.1584 42.1225 64.518 40.482C62.8775 38.8416 60.6533 37.919 58.3333 37.9167Z" fill="url(#paint0_linear_169_526)"/>
<path d="M64.1667 69.9998C63.7799 69.9998 63.4091 69.8461 63.1356 69.5725L58.3334 64.7703L53.5311 69.5725C53.3271 69.7764 53.0673 69.9153 52.7844 69.9715C52.5016 70.0278 52.2084 69.9989 51.942 69.8885C51.6755 69.7782 51.4478 69.5913 51.2876 69.3515C51.1273 69.1118 51.0417 68.8299 51.0417 68.5415V55.4165H53.9584V65.0211L57.3023 61.6771C57.5758 61.4037 57.9467 61.2501 58.3334 61.2501C58.7201 61.2501 59.0909 61.4037 59.3644 61.6771L62.7084 65.0211V55.4165H65.625V68.5415C65.625 68.9283 65.4714 69.2992 65.1979 69.5727C64.9244 69.8462 64.5535 69.9998 64.1667 69.9998Z" fill="url(#paint1_linear_169_526)"/>
<path d="M49.5833 70H10.2083C9.04802 70 7.93522 69.5391 7.11475 68.7186C6.29428 67.8981 5.83334 66.7853 5.83334 65.625V13.125C5.83343 12.7383 5.98713 12.3674 6.26064 12.094L17.9273 0.427292C18.2007 0.153782 18.5716 8.25962e-05 18.9583 0H59.7917C60.952 0 62.0648 0.460936 62.8853 1.28141C63.7057 2.10188 64.1667 3.21468 64.1667 4.375V32.0833H61.25V4.375C61.25 3.98823 61.0964 3.61729 60.8229 3.3438C60.5494 3.07031 60.1784 2.91667 59.7917 2.91667H19.5621L8.75001 13.7287V65.625C8.75001 66.0118 8.90366 66.3827 9.17715 66.6562C9.45064 66.9297 9.82157 67.0833 10.2083 67.0833H49.5833V70Z" fill="#8B9F9F"/>
<path d="M16.0417 14.5835H7.29166V11.6668H16.0417C16.4284 11.6668 16.7994 11.5132 17.0729 11.2397C17.3463 10.9662 17.5 10.5953 17.5 10.2085V1.4585H20.4167V10.2085C20.4167 11.3688 19.9557 12.4816 19.1352 13.3021C18.3148 14.1226 17.202 14.5835 16.0417 14.5835Z" fill="#8B9F9F"/>
<path d="M56.875 18.9585H24.7917V21.8752H56.875V18.9585Z" fill="#8B9F9F"/>
<path d="M56.875 26.25H13.125V29.1667H56.875V26.25Z" fill="#8B9F9F"/>
<path d="M48.125 33.5415H13.125V36.4582H48.125V33.5415Z" fill="#8B9F9F"/>
<path d="M43.75 40.8335H13.125V43.7502H43.75V40.8335Z" fill="#8B9F9F"/>
<path d="M43.75 48.125H13.125V51.0417H43.75V48.125Z" fill="#8B9F9F"/>
<path d="M46.6667 55.4165H13.125V58.3332H46.6667V55.4165Z" fill="#8B9F9F"/>
<path d="M58.3334 13.1252H55.4167V10.2085C55.4167 9.82172 55.263 9.45079 54.9896 9.1773C54.7161 8.90381 54.3451 8.75016 53.9584 8.75016H51.0417V5.8335H53.9584C55.1187 5.8335 56.2315 6.29443 57.0519 7.1149C57.8724 7.93538 58.3334 9.04817 58.3334 10.2085V13.1252Z" fill="#8B9F9F"/>
<path d="M48.125 5.8335H45.2083V8.75016H48.125V5.8335Z" fill="#8B9F9F"/>
</g>
<defs>
<linearGradient id="paint0_linear_169_526" x1="48.9657" y1="39.8428" x2="68.239" y2="53.1726" gradientUnits="userSpaceOnUse">
<stop stop-color="#D89A26"/>
<stop offset="1" stop-color="#FFCD70"/>
</linearGradient>
<linearGradient id="paint1_linear_169_526" x1="52.4786" y1="58.4432" x2="64.5244" y2="66.7744" gradientUnits="userSpaceOnUse">
<stop stop-color="#D89A26"/>
<stop offset="1" stop-color="#FFCD70"/>
</linearGradient>
<clipPath id="clip0_169_526">
<rect width="70" height="70" fill="white"/>
</clipPath>
</defs>
</svg>
